<svg xmlns="http://www.w3.org/2000/svg" xmlns:xlink="http://www.w3.org/1999/xlink" width="379.343" height="874.659" viewBox="0 0 379.343 874.659">
  <defs>
    <linearGradient id="linear-gradient" x1="0.5" x2="0.5" y2="1" gradientUnits="objectBoundingBox">
      <stop offset="0" stop-color="#85d7c7"/>
      <stop offset="1" stop-color="#0e4371"/>
    </linearGradient>
  </defs>
  <g id="Path_43" data-name="Path 43" transform="translate(0 625.265)" fill="url(#linear-gradient)">
    <path d="M 228.4018249511719 248.8942260742188 C 224.9969940185547 248.8942260742188 221.4522857666016 248.3453979492188 217.8645782470703 247.2626647949219 C 214.1109161376953 246.1298828125 210.1830291748047 244.3744354248047 206.1898040771484 242.0452117919922 C 199.5294799804688 238.1601104736328 193.7125854492188 233.8881072998047 188.4066925048828 228.9848785400391 C 183.6719207763672 224.6095581054688 179.4486999511719 219.8211059570312 175.4956970214844 214.3459930419922 C 172.1928100585938 209.7713317871094 169.017578125 204.6114349365234 165.7884674072266 198.5714416503906 C 162.9010314941406 193.1703338623047 160.2218017578125 187.5489959716797 157.6309204101562 182.1127777099609 C 153.9686889648438 174.4286651611328 150.1817016601562 166.4828796386719 145.6480255126953 158.7876586914062 C 140.5460357666016 150.1277770996094 135.0620269775391 142.7899932861328 128.8825836181641 136.3548889160156 C 121.7765884399414 128.9550018310547 114.8223648071289 123.893440246582 107.6224746704102 120.8809967041016 C 101.7822494506836 118.4373321533203 95.69258880615234 117.2992172241211 88.45803070068359 117.2992172241211 C 84.38780975341797 117.2992172241211 80.27481079101562 117.6487731933594 76.29736328125 117.9866638183594 C 72.21669769287109 118.3334426879883 67.99713897705078 118.6919937133789 63.71258544921875 118.6919937133789 C 59.93458557128906 118.6919937133789 56.49880599975586 118.4127731323242 53.20880889892578 117.8385543823242 C 49.34603118896484 117.1643295288086 45.67880630493164 116.0906600952148 41.99747467041016 114.5561065673828 C 34.7244758605957 111.5245513916016 28.01902961730957 106.7147750854492 22.06736373901367 100.2604446411133 C 17.29569625854492 95.08577728271484 12.99469661712646 88.84844207763672 9.283918380737305 81.72166442871094 C 5.97791862487793 75.37244415283203 3.762585163116455 69.47866058349609 2.48647403717041 65.65244293212891 C 1.209367990493774 61.82389068603516 0.5922952890396118 59.24595642089844 0.5000295042991638 58.85037231445312 L 0.5000295042991638 -5.877448081970215 L 0.5000295042991638 -624.7647705078125 L 375.5347900390625 -624.7647705078125 L 378.8414001464844 123.1907730102539 C 377.8497009277344 123.4329986572266 375.0256652832031 124.1546401977539 370.9883728027344 125.4497756958008 C 366.3245849609375 126.9458847045898 359.0332641601562 129.5373229980469 350.7819213867188 133.3869934082031 C 341.50537109375 137.7151031494141 332.9300231933594 142.7192230224609 325.2937927246094 148.2603302001953 C 315.7412414550781 155.1922149658203 307.6394653320312 162.9893341064453 301.2133483886719 171.4351043701172 C 295.0711364746094 179.5077819824219 289.2127990722656 188.8974456787109 283.5472412109375 197.9778900146484 C 275.7092590332031 210.5404357910156 267.6043701171875 223.5306701660156 258.7005920410156 233.0808868408203 C 253.92724609375 238.2006683349609 249.3081359863281 241.9567718505859 244.5792541503906 244.5637817382812 C 242.0264739990234 245.9711151123047 239.40869140625 247.0475463867188 236.798583984375 247.7632141113281 C 234.0638122558594 248.5131072998047 231.2408142089844 248.8935546875 228.4080352783203 248.8942260742188 C 228.4061584472656 248.8942260742188 228.4037017822266 248.8942260742188 228.4018249511719 248.8942260742188 Z" stroke="none"/>
    <path d="M 1.000030517578125 -624.2647705078125 L 1.000030517578125 -5.877410888671875 L 1.000030517578125 58.79226684570312 C 1.125885009765625 59.32461547851562 1.74200439453125 61.84320068359375 2.968597412109375 65.517578125 C 4.240142822265625 69.3271484375 6.447021484375 75.194580078125 9.7392578125 81.51358032226562 C 13.42959594726562 88.5966796875 17.70437622070312 94.793701171875 22.44479370117188 99.932373046875 C 28.34481811523438 106.3278198242188 34.9879150390625 111.0926818847656 42.1898193359375 114.0946960449219 C 45.83547973632812 115.6143493652344 49.46792602539062 116.6777038574219 53.29446411132812 117.345703125 C 56.55679321289062 117.9151306152344 59.9644775390625 118.1919250488281 63.71237182617188 118.1919250488281 C 67.976806640625 118.1919250488281 72.18524169921875 117.8342590332031 76.25503540039062 117.4884643554688 C 80.24258422851562 117.1495971679688 84.36581420898438 116.7992553710938 88.45803833007812 116.7992553710938 C 95.76113891601562 116.7992553710938 101.9121398925781 117.94970703125 107.8154602050781 120.4197082519531 C 115.0798034667969 123.4590148925781 122.0889282226562 128.5582580566406 129.2432556152344 136.0084838867188 C 143.0778045654297 150.4154663085938 150.7057037353516 166.4200134277344 158.0822448730469 181.8975524902344 C 160.6708068847656 187.3287048339844 163.3473663330078 192.9446716308594 166.2293701171875 198.3356018066406 C 169.4477996826172 204.3556823730469 172.6114807128906 209.4970397949219 175.9011383056641 214.0532531738281 C 179.8343658447266 219.5010070800781 184.0360260009766 224.2651672363281 188.7460327148438 228.6175842285156 C 194.0249176025391 233.4958190917969 199.8132476806641 237.7466735839844 206.4418029785156 241.6132507324219 C 210.4004669189453 243.9223327636719 214.2922515869141 245.6618957519531 218.009033203125 246.7833557128906 C 221.5511474609375 247.8522644042969 225.0499114990234 248.3941345214844 228.4081420898438 248.3941345214844 C 231.1962585449219 248.3941345214844 233.9747009277344 248.0201110839844 236.6663665771484 247.2825012207031 C 239.2384796142578 246.5776672363281 241.8194732666016 245.5164489746094 244.3376922607422 244.1284484863281 C 249.0194702148438 241.5479431152344 253.5978088378906 237.8238220214844 258.3343505859375 232.7433776855469 C 267.2051391601562 223.2286071777344 275.2968139648438 210.2585754394531 283.1221313476562 197.7156677246094 C 288.7940368652344 188.6244812011719 294.658935546875 179.2237854003906 300.8154907226562 171.1322326660156 C 307.2711486816406 162.6475524902344 315.4080200195312 154.8161315917969 325.0001525878906 147.8555908203125 C 332.6620178222656 142.2956848144531 341.26513671875 137.2753601074219 350.5704650878906 132.9339294433594 C 358.845458984375 129.0731506347656 366.1581420898438 126.4741516113281 370.8355712890625 124.9736938476562 C 374.4917907714844 123.8008422851562 377.1109924316406 123.1068420410156 378.3396606445312 122.7991333007812 L 375.0369873046875 -624.2647705078125 L 1.000030517578125 -624.2647705078125 M 3.0517578125e-05 -625.2647705078125 L 376.0325927734375 -625.2647705078125 L 379.3431396484375 123.5850219726562 C 379.3431396484375 123.5850219726562 329.6542358398438 134.8810119628906 301.6112670898438 171.7378234863281 C 278.4583129882812 202.1676940917969 260.5736083984375 249.3941345214844 228.4081726074219 249.3941345214844 C 221.6146087646484 249.3941345214844 214.1904907226562 247.2908630371094 205.9379119873047 242.4770202636719 C 158.6120300292969 214.8713684082031 161.8290252685547 171.3861389160156 128.5219116210938 136.7011413574219 C 113.3930053710938 120.9463806152344 100.7590637207031 117.7991943359375 88.45809936523438 117.7991943359375 C 80.27450561523438 117.7991943359375 72.23855590820312 119.1919555664062 63.71234130859375 119.1919555664062 C 56.83935546875 119.1919555664062 49.64813232421875 118.2868957519531 41.80502319335938 115.0177001953125 C 9.60736083984375 101.5968017578125 3.0517578125e-05 58.90713500976562 3.0517578125e-05 58.90713500976562 L 3.0517578125e-05 -5.877410888671875 L 3.0517578125e-05 -625.2647705078125 Z" stroke="none" fill="#707070"/>
  </g>
</svg>
