<svg xmlns="http://www.w3.org/2000/svg" xmlns:xlink="http://www.w3.org/1999/xlink" width="1920" height="1439.875" viewBox="0 0 1920 1439.875">
  <defs>
    <style>
      .cls-1 {
        fill: none;
      }

      .cls-2 {
        clip-path: url(#clip-path);
      }

      .cls-3 {
        fill: url(#linear-gradient);
      }

      .cls-4, .cls-5 {
        stroke: none;
      }

      .cls-5 {
        fill: #707070;
      }
    </style>
    <clipPath id="clip-path">
      <rect class="cls-1" width="1920" height="1439.875"/>
    </clipPath>
    <linearGradient id="linear-gradient" x1="0.5" x2="0.5" y2="1" gradientUnits="objectBoundingBox">
      <stop offset="0" stop-color="#85d7c7"/>
      <stop offset="1" stop-color="#0e4371"/>
    </linearGradient>
  </defs>
  <g id="Repeat_Grid_13" data-name="Repeat Grid 13" class="cls-2">
    <g id="Path_39" data-name="Path 39" class="cls-3">
      <path class="cls-4" d="M 1088.4609375 1439.375244140625 C 1077.304077148438 1439.37548828125 1066.144287109375 1438.669921875 1055.291870117188 1437.278076171875 C 1044.184326171875 1435.853515625 1033.08447265625 1433.669921875 1022.300720214844 1430.787841796875 C 1011.271911621094 1427.840209960938 1000.261413574219 1424.078491210938 989.5752563476562 1419.607299804688 C 978.653564453125 1415.037841796875 967.7619018554688 1409.597534179688 957.20263671875 1403.438232421875 C 939.2109375 1392.943481445312 921.6181030273438 1381.444213867188 904.912841796875 1369.260131835938 C 888.9940185546875 1357.649536132812 873.35498046875 1345.032348632812 858.4299926757812 1331.759033203125 C 844.3226318359375 1319.212768554688 830.3597412109375 1305.640380859375 816.9297485351562 1291.4189453125 C 804.3800048828125 1278.130004882812 791.816162109375 1263.765380859375 779.5878295898438 1248.724243164062 C 768.201416015625 1234.718994140625 757.077880859375 1220.141357421875 745.5811767578125 1204.158813476562 C 735.3406982421875 1189.922119140625 725.038818359375 1174.891357421875 714.08740234375 1158.20751953125 C 693.7447509765625 1127.21728515625 674.2243041992188 1095.125854492188 655.3466796875 1064.091186523438 C 631.5114135742188 1024.906372070312 606.86474609375 984.3873291015625 580.4761962890625 945.96875 C 566.2716674804688 925.2890014648438 552.6981201171875 906.8313598632812 538.97998046875 889.5416259765625 C 531.548095703125 880.1747436523438 523.98046875 871.0490112304688 516.4871215820312 862.4176025390625 C 508.6268920898438 853.36328125 500.5745239257812 844.537353515625 492.5538024902344 836.1846923828125 C 486.8042907714844 830.1975708007812 480.9480895996094 824.5606689453125 475.1478576660156 819.43115234375 C 469.4949951171875 814.4320678710938 463.7333374023438 809.7713623046875 458.0226135253906 805.5783081054688 C 452.4666748046875 801.4990234375 446.7990417480469 797.7449340820312 441.1771545410156 794.4208984375 C 435.7183227539062 791.1930541992188 430.144775390625 788.27685546875 424.6109619140625 785.7535400390625 C 419.25048828125 783.3090209960938 413.7709655761719 781.16162109375 408.3245239257812 779.3711547851562 C 403.0640563964844 777.6416015625 397.6792907714844 776.1940307617188 392.3195190429688 775.0682983398438 C 382.23046875 772.949462890625 371.7471313476562 771.8749389648438 361.1604614257812 771.8749389648438 C 351.95166015625 771.8749389648438 342.692626953125 772.6454467773438 332.8540344238281 774.22998046875 C 324.1452331542969 775.632568359375 315.2171325683594 777.6397094726562 305.5592956542969 780.3659057617188 C 287.7059631347656 785.4054565429688 270.5609436035156 792.0213623046875 253.9802398681641 798.4192504882812 C 239.5419006347656 803.9906616210938 225.9042816162109 809.2530517578125 212.5971374511719 813.1961669921875 C 205.4700012207031 815.3078002929688 199.0666656494141 816.854248046875 193.0211944580078 817.9232788085938 C 186.2826232910156 819.1151733398438 180.1235656738281 819.6944580078125 174.192138671875 819.6944580078125 C 159.9021453857422 819.6944580078125 147.3580932617188 816.2528076171875 135.8428497314453 809.1732788085938 C 129.6111907958984 805.3421020507812 123.5685729980469 800.3368530273438 117.8830947875977 794.296875 C 111.937858581543 787.9808959960938 106.1566696166992 780.2944946289062 100.7002410888672 771.45068359375 C 89.68452453613281 753.5968627929688 79.31143188476562 735.1461181640625 69.86904907226562 716.6111450195312 C 61.28476333618164 699.7611694335938 53.27666854858398 682.4625854492188 46.06714248657227 665.1964111328125 C 33.92428588867188 636.1154174804688 23.79238128662109 606.5873413085938 15.95333290100098 577.431640625 C 12.87357139587402 565.9773559570312 10.14476203918457 554.5537719726562 7.842618942260742 543.478271484375 C 6.000714302062988 534.6177978515625 4.42642879486084 525.958740234375 3.163095235824585 517.7421264648438 C 1.056283593177795 504.0402526855469 0.5254777073860168 496.1244812011719 0.5 495.7296752929688 L 0.5 0.4999544322490692 L 1919.5 0.4999544322490692 L 1919.5 871.4804077148438 C 1918.932861328125 871.459228515625 1917.91455078125 871.431640625 1916.460205078125 871.431640625 C 1910.230224609375 871.431640625 1897.021606445312 871.9349365234375 1878.5556640625 875.30615234375 C 1868.182373046875 877.2001953125 1857.53125 879.7549438476562 1846.897583007812 882.8999633789062 C 1834.207397460938 886.6532592773438 1821.37353515625 891.2992553710938 1808.752197265625 896.709228515625 C 1777.834106445312 909.9616088867188 1747.621704101562 927.9940185546875 1718.953857421875 950.30517578125 C 1702.276611328125 963.2844848632812 1685.900268554688 977.903076171875 1670.279052734375 993.7544555664062 C 1661.944702148438 1002.212097167969 1653.658081054688 1011.19140625 1645.649291992188 1020.442810058594 C 1637.311889648438 1030.073974609375 1629.042846679688 1040.26904296875 1621.072387695312 1050.744750976562 C 1586.615478515625 1096.031372070312 1551.605712890625 1138.42333984375 1517.015747070312 1176.743041992188 C 1496.265258789062 1199.73046875 1475.353149414062 1221.589965820312 1454.859741210938 1241.713745117188 C 1432.2607421875 1263.905151367188 1409.588134765625 1284.558715820312 1387.4716796875 1303.100219726562 C 1375.677856445312 1312.98779296875 1363.801391601562 1322.475952148438 1352.172119140625 1331.301391601562 C 1340.071411132812 1340.484741210938 1327.899047851562 1349.2080078125 1315.992797851562 1357.22900390625 C 1303.632568359375 1365.555908203125 1291.21240234375 1373.359741210938 1279.076904296875 1380.423950195312 C 1266.504760742188 1387.742309570312 1253.884765625 1394.472534179688 1241.567626953125 1400.427856445312 C 1228.830932617188 1406.585693359375 1216.0595703125 1412.088012695312 1203.608276367188 1416.781860351562 C 1190.754516601562 1421.627807617188 1177.880004882812 1425.748291015625 1165.342651367188 1429.029052734375 C 1152.419067382812 1432.410888671875 1139.4892578125 1434.995849609375 1126.912841796875 1436.712280273438 C 1113.966674804688 1438.47900390625 1101.029541015625 1439.375 1088.4609375 1439.375244140625 Z"/>
      <path class="cls-5" d="M 1 1 L 1 495.71337890625 C 1.0355224609375 496.2562255859375 1.57421875 504.111328125 3.65283203125 517.6385498046875 C 4.9140625 525.8447265625 6.4862060546875 534.4932861328125 8.3251953125 543.343994140625 C 10.624755859375 554.4097290039062 13.3507080078125 565.8237915039062 16.4273681640625 577.2689819335938 C 24.260009765625 606.4068603515625 34.384521484375 635.9177856445312 46.51953125 664.9821166992188 C 53.7249755859375 682.2401733398438 61.728759765625 699.5304565429688 70.308349609375 716.37255859375 C 79.7462158203125 734.8994750976562 90.11474609375 753.3421020507812 101.12548828125 771.1882934570312 C 106.5643310546875 780.0032958984375 112.324951171875 787.662841796875 118.2471923828125 793.9542236328125 C 123.90234375 799.9620971679688 129.9105224609375 804.9392700195312 136.1044921875 808.747314453125 C 147.538818359375 815.77734375 159.9971923828125 819.1944580078125 174.19189453125 819.1944580078125 C 180.09375 819.1944580078125 186.2242431640625 818.6175537109375 192.93408203125 817.43115234375 C 198.960693359375 816.3651733398438 205.34619140625 814.8230590820312 212.4549560546875 812.7168579101562 C 225.7427978515625 808.7794799804688 239.3714599609375 803.5204467773438 253.80029296875 797.9528198242188 C 270.3914794921875 791.5506591796875 287.547607421875 784.930419921875 305.42333984375 779.8844604492188 C 315.0997314453125 777.153076171875 324.04638671875 775.141845703125 332.7745361328125 773.7361450195312 C 342.50244140625 772.1694946289062 352.0528564453125 771.3749389648438 361.1602783203125 771.3749389648438 C 366.365966796875 771.3749389648438 371.576416015625 771.6328125 376.6473388671875 772.1411743164062 C 381.9385986328125 772.671630859375 387.2459716796875 773.4918823242188 392.422119140625 774.5789794921875 C 397.7998046875 775.7083129882812 403.20263671875 777.160888671875 408.480712890625 778.8961181640625 C 413.944580078125 780.6923217773438 419.441162109375 782.8463745117188 424.818359375 785.2985229492188 C 430.3680419921875 787.8292236328125 435.9576416015625 790.7537841796875 441.431396484375 793.9904174804688 C 447.067626953125 797.3230590820312 452.749267578125 801.0861206054688 458.318603515625 805.1754150390625 C 464.0413818359375 809.3770751953125 469.81494140625 814.0475463867188 475.47900390625 819.056640625 C 481.28955078125 824.1951904296875 487.155517578125 829.8413696289062 492.914306640625 835.8385009765625 C 500.94091796875 844.1970825195312 508.9990234375 853.0292358398438 516.86474609375 862.0899658203125 C 524.3629150390625 870.7268676757812 531.9351806640625 879.8582763671875 539.3717041015625 889.2306518554688 C 553.09716796875 906.5297241210938 566.6773681640625 924.9961547851562 580.8883056640625 945.6856689453125 C 607.2847900390625 984.1156616210938 631.93505859375 1024.640625 655.7738037109375 1063.831420898438 C 674.6492919921875 1094.8623046875 694.1673583984375 1126.949951171875 714.5054931640625 1157.933349609375 C 725.453125 1174.61083984375 735.750732421875 1189.635864257812 745.9871826171875 1203.866577148438 C 757.4779052734375 1219.84130859375 768.595703125 1234.4111328125 779.9757080078125 1248.40869140625 C 792.1964111328125 1263.4404296875 804.751953125 1277.795654296875 817.2930908203125 1291.07568359375 C 830.71337890625 1305.28662109375 844.665771484375 1318.848510742188 858.7623291015625 1331.385498046875 C 873.67529296875 1344.648071289062 889.3016357421875 1357.255004882812 905.2073974609375 1368.856201171875 C 921.8990478515625 1381.030395507812 939.4773559570312 1392.520141601562 957.4545288085938 1403.00634765625 C 967.9947509765625 1409.154663085938 978.8666381835938 1414.584716796875 989.768310546875 1419.145874023438 C 1000.43359375 1423.608276367188 1011.422607421875 1427.362548828125 1022.429992675781 1430.304443359375 C 1033.192138671875 1433.1806640625 1044.27001953125 1435.359985351562 1055.35546875 1436.781616210938 C 1066.186889648438 1438.1708984375 1077.324951171875 1438.875244140625 1088.4609375 1438.875244140625 C 1101.0068359375 1438.875244140625 1113.921142578125 1437.981201171875 1126.84521484375 1436.217529296875 C 1139.40185546875 1434.504272460938 1152.311645507812 1431.92333984375 1165.215942382812 1428.546630859375 C 1177.736694335938 1425.270385742188 1190.59423828125 1421.155151367188 1203.431884765625 1416.31591796875 C 1215.869018554688 1411.627319335938 1228.626708984375 1406.130859375 1241.349975585938 1399.9794921875 C 1253.655517578125 1394.029907226562 1266.264038085938 1387.305908203125 1278.8251953125 1379.993774414062 C 1290.951416015625 1372.935180664062 1303.3623046875 1365.137084960938 1315.71337890625 1356.81640625 C 1327.61181640625 1348.800415039062 1339.776611328125 1340.08251953125 1351.869750976562 1330.904907226562 C 1363.49267578125 1322.08447265625 1375.362548828125 1312.601196289062 1387.150268554688 1302.71875 C 1409.2568359375 1284.185424804688 1431.919799804688 1263.540649414062 1454.50927734375 1241.358032226562 C 1474.995483398438 1221.2412109375 1495.900756835938 1199.389038085938 1516.644287109375 1176.408569335938 C 1551.224731445312 1138.099487304688 1586.225463867188 1095.71826171875 1620.674560546875 1050.442138671875 C 1628.6513671875 1039.9580078125 1636.926879882812 1029.754638671875 1645.271240234375 1020.115417480469 C 1653.286865234375 1010.855895996094 1661.580932617188 1001.868774414062 1669.923095703125 993.4037475585938 C 1685.559326171875 977.53662109375 1701.952392578125 962.9032592773438 1718.646728515625 949.91064453125 C 1747.348388671875 927.5733032226562 1777.597900390625 909.5189819335938 1808.55517578125 896.2496948242188 C 1821.194580078125 890.8320922851562 1834.046875 886.1792602539062 1846.755981445312 882.42041015625 C 1857.406372070312 879.2704467773438 1868.0751953125 876.7113647460938 1878.465942382812 874.814453125 C 1896.970703125 871.4361572265625 1910.21337890625 870.931640625 1916.460205078125 870.931640625 C 1917.552124023438 870.931640625 1918.4013671875 870.9472045898438 1919 870.9639892578125 L 1919 1 L 1 1 M 0 0 L 1920 0 L 1920 872.0032958984375 C 1920 872.0032958984375 1918.780639648438 871.9315185546875 1916.460205078125 871.9315185546875 C 1892.579223632812 871.9315185546875 1751.97509765625 879.525390625 1621.47021484375 1051.047607421875 C 1503.742065429688 1205.777709960938 1293.72802734375 1439.875244140625 1088.4609375 1439.875244140625 C 1044.073486328125 1439.875244140625 999.9137573242188 1428.931030273438 956.9507446289062 1403.870239257812 C 715.3076171875 1262.916870117188 662.257568359375 1013.630920410156 492.193115234375 836.5311279296875 C 445.47314453125 787.8784790039062 401.8182373046875 772.3750610351562 361.1602783203125 772.3750610351562 C 289.75390625 772.3750610351562 227.5628662109375 820.1943969726562 174.1920166015625 820.1943969726562 C 147.33447265625 820.1943969726562 122.7255859375 808.10107421875 100.2745361328125 771.7133178710938 C 7.806396484375 621.844482421875 0 495.7457275390625 0 495.7457275390625 L 0 0 Z"/>
    </g>
  </g>
</svg>
