<svg xmlns="http://www.w3.org/2000/svg" xmlns:xlink="http://www.w3.org/1999/xlink" width="1920.002" height="1140.209" viewBox="0 0 1920.002 1140.209">
  <defs>
    <style>
      .cls-1 {
        fill: url(#linear-gradient);
      }

      .cls-2, .cls-3 {
        stroke: none;
      }

      .cls-3 {
        fill: #707070;
      }
    </style>
    <linearGradient id="linear-gradient" x1="0.5" x2="0.5" y2="1" gradientUnits="objectBoundingBox">
      <stop offset="0" stop-color="#2f79ba"/>
      <stop offset="1" stop-color="#652ebc"/>
      <stop offset="1" stop-color="#d101c9"/>
    </linearGradient>
  </defs>
  <g id="Path_46" data-name="Path 46" class="cls-1" transform="translate(0.002)">
    <path class="cls-2" d="M 1255.587524414062 1139.708984375 C 1247.383056640625 1139.70947265625 1238.967529296875 1139.399047851562 1230.574951171875 1138.785888671875 C 1221.86328125 1138.1494140625 1212.900390625 1137.166870117188 1203.935668945312 1135.865600585938 C 1194.662109375 1134.519653320312 1185.098999023438 1132.790893554688 1175.511596679688 1130.727294921875 C 1165.62255859375 1128.598754882812 1155.405883789062 1126.049194335938 1145.145141601562 1123.149169921875 C 1134.587280273438 1120.165161132812 1123.663940429688 1116.720458984375 1112.67919921875 1112.910400390625 C 1101.39892578125 1108.997802734375 1089.716552734375 1104.583251953125 1077.9560546875 1099.789428710938 C 1053.574951171875 1089.850708007812 1027.720581054688 1077.81494140625 1001.111572265625 1064.0166015625 C 983.9932250976562 1055.1396484375 966.1668090820312 1047.372802734375 948.1270751953125 1040.931884765625 C 930.8832397460938 1034.77490234375 912.918701171875 1029.641845703125 894.7325439453125 1025.675415039062 C 877.4498901367188 1021.906127929688 859.4232177734375 1019.072082519531 841.1535034179688 1017.252319335938 C 823.9249267578125 1015.536376953125 805.9115600585938 1014.666137695312 787.6139526367188 1014.666137695312 C 776.3732299804688 1014.666137695312 764.7218017578125 1014.994018554688 752.9827880859375 1015.640441894531 C 741.8261108398438 1016.254943847656 730.2315673828125 1017.177062988281 718.5206298828125 1018.38134765625 C 696.987548828125 1020.595886230469 674.6868286132812 1023.765869140625 650.343505859375 1028.07275390625 C 605.3089599609375 1036.040405273438 561.2587280273438 1046.524658203125 518.658935546875 1056.663940429688 C 481.1301574707031 1065.59619140625 445.6827697753906 1074.033081054688 411.4072875976562 1080.368530273438 C 393.0303955078125 1083.765380859375 376.63134765625 1086.253295898438 361.2732543945312 1087.974487304688 C 344.1329956054688 1089.895141601562 328.6361083984375 1090.828979492188 313.8970642089844 1090.828979492188 C 299.5815734863281 1090.828979492188 285.9429931640625 1089.90234375 273.3603820800781 1088.07470703125 C 266.7763366699219 1087.118530273438 260.3063354492188 1085.8916015625 254.1301574707031 1084.42822265625 C 247.79443359375 1082.927124023438 241.5701446533203 1081.130126953125 235.6306304931641 1079.087768554688 C 229.5508575439453 1076.996826171875 223.5820617675781 1074.58447265625 217.8899078369141 1071.917114257812 C 212.0742034912109 1069.19189453125 206.3699188232422 1066.117309570312 200.9353942871094 1062.779418945312 C 195.3918151855469 1059.374267578125 189.9613342285156 1055.591796875 184.794677734375 1051.537109375 C 179.5313415527344 1047.406860351562 174.3837280273438 1042.869750976562 169.4949188232422 1038.051879882812 C 130.5587158203125 999.6825561523438 97.45443725585938 965.227294921875 71.10157775878906 935.64306640625 C 49.98134231567383 911.9335327148438 33.11919784545898 891.2742309570312 20.98348426818848 874.2392578125 C 16.20443534851074 867.5311279296875 12.15467357635498 861.3739624023438 8.946578979492188 855.93896484375 C 6.374197959899902 851.5806884765625 4.333245277404785 847.6732788085938 2.880626440048218 844.324951171875 C 0.3970549702644348 838.5997314453125 0.4972930550575256 836.4666137695312 0.4987216293811798 836.4456787109375 L 0.5003883242607117 836.4251708984375 L 0.4999121129512787 836.4097290039062 L 0.4999121129512787 0.4999439716339111 L 1919.499877929688 0.4999439716339111 L 1919.499877929688 602.842529296875 C 1917.644897460938 603.1398315429688 1909.85791015625 604.4473266601562 1898.442504882812 607.1746826171875 C 1890.760864257812 609.0101928710938 1882.96044921875 611.1204223632812 1875.258056640625 613.4470825195312 C 1865.629638671875 616.3554077148438 1856.128051757812 619.612060546875 1847.0166015625 623.1263427734375 C 1823.818481445312 632.07421875 1802.978759765625 642.727294921875 1785.076293945312 654.7897338867188 C 1774.441772460938 661.9552001953125 1764.738525390625 669.7042236328125 1756.236083984375 677.8215942382812 C 1746.87939453125 686.7546997070312 1738.746337890625 696.3551635742188 1732.0625 706.3561401367188 C 1726.438232421875 714.7720947265625 1721.7099609375 723.6682739257812 1718.009155273438 732.7975463867188 C 1714.08203125 742.4851684570312 1711.205444335938 752.6978149414062 1709.45947265625 763.152099609375 C 1707.616088867188 774.1885375976562 1706.982543945312 785.796142578125 1707.576293945312 797.652099609375 C 1708.200439453125 810.1146850585938 1710.197998046875 823.1951904296875 1713.513305664062 836.5303955078125 C 1716.197021484375 847.32470703125 1718.546875 857.7335205078125 1720.497314453125 867.4675903320312 C 1722.444702148438 877.1864013671875 1724.056518554688 886.5437622070312 1725.287963867188 895.2797241210938 C 1726.514892578125 903.9842529296875 1727.403686523438 912.3506469726562 1727.92919921875 920.1466064453125 C 1728.451782226562 927.8978271484375 1728.632080078125 935.333740234375 1728.46533203125 942.247802734375 C 1727.81298828125 969.27734375 1721.930419921875 990.3370971679688 1710.481079101562 1006.630187988281 C 1707.07177734375 1011.481872558594 1703.08203125 1016.009216308594 1698.62255859375 1020.086608886719 C 1694.283447265625 1024.0537109375 1689.336547851562 1027.744018554688 1683.9189453125 1031.0546875 C 1673.594482421875 1037.364013671875 1661.27587890625 1042.551879882812 1646.259643554688 1046.914672851562 C 1632.951538085938 1050.781127929688 1617.208984375 1054.0673828125 1598.13232421875 1056.961181640625 C 1578.9794921875 1059.866333007812 1558.105346679688 1062.130859375 1540.212280273438 1063.963012695312 C 1529.863525390625 1065.022583007812 1519.647583007812 1066.70849609375 1508.980834960938 1069.117065429688 C 1499.456298828125 1071.267822265625 1489.770629882812 1073.953979492188 1479.369873046875 1077.328979492188 C 1460.025146484375 1083.606567382812 1441.70068359375 1091.117797851562 1422.300170898438 1099.070190429688 C 1373.564697265625 1119.046875 1323.169921875 1139.703735351562 1255.587524414062 1139.708984375 Z"/>
    <path class="cls-3" d="M 0.9998779296875 1 L 0.9998779296875 836.40966796875 L 1.003662109375 836.431884765625 L 0.997802734375 836.4810791015625 C 0.99560546875 836.6373291015625 1.0152587890625 838.8572998046875 3.4908447265625 844.4722900390625 C 4.9808349609375 847.851806640625 7.0594482421875 851.7896728515625 9.66845703125 856.1763916015625 C 12.9154052734375 861.6351928710938 17.0001220703125 867.8120727539062 21.8094482421875 874.53564453125 C 33.9951171875 891.5720825195312 50.8648681640625 912.19921875 71.9501953125 935.843994140625 C 98.215576171875 965.297607421875 131.152587890625 999.565673828125 169.8458251953125 1037.695678710938 C 174.7213134765625 1042.50048828125 179.8546142578125 1047.02490234375 185.103271484375 1051.143798828125 C 190.2548828125 1055.186889648438 195.669677734375 1058.958251953125 201.197021484375 1062.353271484375 C 206.6156005859375 1065.681640625 212.30322265625 1068.746826171875 218.10205078125 1071.464233398438 C 223.7779541015625 1074.1240234375 229.7301025390625 1076.529907226562 235.79296875 1078.614990234375 C 241.71728515625 1080.652099609375 247.9254150390625 1082.444213867188 254.245361328125 1083.941650390625 C 260.4071044921875 1085.401611328125 266.862548828125 1086.625610351562 273.4322509765625 1087.579956054688 C 285.9910888671875 1089.404052734375 299.6053466796875 1090.328979492188 313.8970947265625 1090.328979492188 C 328.6173095703125 1090.328979492188 344.0958251953125 1089.396362304688 361.21728515625 1087.4775390625 C 376.563720703125 1085.757568359375 392.9510498046875 1083.271362304688 411.3162841796875 1079.876831054688 C 445.5792236328125 1073.54345703125 481.0206298828125 1065.108032226562 518.54296875 1056.177368164062 C 561.14990234375 1046.03662109375 605.207275390625 1035.550415039062 650.25634765625 1027.580444335938 C 674.611572265625 1023.271362304688 696.9241943359375 1020.099731445312 718.469482421875 1017.883972167969 C 730.18798828125 1016.678771972656 741.7906494140625 1015.755859375 752.9552001953125 1015.14111328125 C 764.7032470703125 1014.494262695312 776.364013671875 1014.166137695312 787.61376953125 1014.166137695312 C 805.927734375 1014.166137695312 823.957763671875 1015.037109375 841.2027587890625 1016.754699707031 C 859.4918212890625 1018.576354980469 877.5374755859375 1021.413513183594 894.8389892578125 1025.186889648438 C 913.0460815429688 1029.157836914062 931.0313110351562 1034.296875 948.295166015625 1040.4609375 C 966.3560791015625 1046.909423828125 984.2034912109375 1054.685424804688 1001.341552734375 1063.572509765625 C 1027.936767578125 1077.36376953125 1053.777099609375 1089.392822265625 1078.144897460938 1099.32568359375 C 1089.896728515625 1104.116088867188 1101.571044921875 1108.52734375 1112.843017578125 1112.436645507812 C 1123.818481445312 1116.243286132812 1134.732299804688 1119.684936523438 1145.281127929688 1122.666137695312 C 1155.531494140625 1125.56298828125 1165.738037109375 1128.109985351562 1175.616821289062 1130.236328125 C 1185.192993164062 1132.29736328125 1194.744873046875 1134.024169921875 1204.00732421875 1135.368774414062 C 1212.96044921875 1136.66845703125 1221.911376953125 1137.64990234375 1230.611328125 1138.285888671875 C 1238.991821289062 1138.898559570312 1247.394897460938 1139.208984375 1255.587524414062 1139.208984375 C 1323.07373046875 1139.208984375 1373.423461914062 1118.568969726562 1422.115600585938 1098.608276367188 C 1441.524169921875 1090.652099609375 1459.856323242188 1083.137084960938 1479.21826171875 1076.853515625 C 1489.633056640625 1073.473754882812 1499.332763671875 1070.783447265625 1508.8720703125 1068.629516601562 C 1519.557983398438 1066.21630859375 1529.79296875 1064.52734375 1540.161376953125 1063.465698242188 C 1558.048461914062 1061.63427734375 1578.915161132812 1059.370361328125 1598.057250976562 1056.466796875 C 1617.11181640625 1053.576416015625 1632.83349609375 1050.294677734375 1646.1201171875 1046.434448242188 C 1661.09326171875 1042.084228515625 1673.3720703125 1036.913940429688 1683.658203125 1030.628051757812 C 1689.048706054688 1027.333984375 1693.969970703125 1023.663024902344 1698.28515625 1019.717529296875 C 1702.7177734375 1015.664489746094 1706.683471679688 1011.164672851562 1710.072021484375 1006.3427734375 C 1721.462768554688 990.133056640625 1727.315673828125 969.1635131835938 1727.96533203125 942.2356567382812 C 1728.1318359375 935.3368530273438 1727.951782226562 927.9163818359375 1727.430419921875 920.18017578125 C 1726.905639648438 912.3963623046875 1726.018310546875 904.0421142578125 1724.792724609375 895.3494873046875 C 1723.562744140625 886.623046875 1721.952514648438 877.275146484375 1720.007080078125 867.56591796875 C 1718.057983398438 857.8392333984375 1715.7099609375 847.4380493164062 1713.027954101562 836.65087890625 C 1709.704956054688 823.284423828125 1707.702758789062 810.171875 1707.077026367188 797.6771240234375 C 1706.481567382812 785.78515625 1707.117065429688 774.1416015625 1708.96630859375 763.0697021484375 C 1710.71826171875 752.5794677734375 1713.60498046875 742.3311767578125 1717.545654296875 732.6097412109375 C 1721.259155273438 723.448974609375 1726.003662109375 714.5225830078125 1731.646850585938 706.0782470703125 C 1738.350830078125 696.046875 1746.5078125 686.4182739257812 1755.890869140625 677.4599609375 C 1764.413696289062 669.3230590820312 1774.138916015625 661.55615234375 1784.796875 654.3751831054688 C 1802.730346679688 642.2918701171875 1823.603759765625 631.6213989257812 1846.836547851562 622.6599731445312 C 1855.959716796875 619.14111328125 1865.473266601562 615.8804321289062 1875.113525390625 612.968505859375 C 1882.8251953125 610.6389770507812 1890.635131835938 608.526123046875 1898.326293945312 606.6885375976562 C 1909.034912109375 604.1298828125 1916.56103515625 602.8181762695312 1918.999877929688 602.417236328125 L 1918.999877929688 1 L 0.9998779296875 1 M -0.0001220703125 0 L 1919.999877929688 0 L 1919.999877929688 603.2702026367188 C 1919.999877929688 603.2702026367188 1665.52294921875 641.4306640625 1713.99853515625 836.40966796875 C 1762.474243164062 1031.388793945312 1690.8125 1049.046142578125 1540.26318359375 1064.46044921875 C 1442.338256835938 1074.48681640625 1376.113525390625 1140.208984375 1255.587646484375 1140.208984375 C 1190.817626953125 1140.208984375 1110.384033203125 1121.244018554688 1000.88134765625 1064.46044921875 C 930.6902465820312 1028.062133789062 858.8140869140625 1015.166137695312 787.61376953125 1015.166137695312 C 614.5687255859375 1015.166137695312 445.4501953125 1091.328979492188 313.89697265625 1091.328979492188 C 257.99951171875 1091.328979492188 208.9013671875 1077.586669921875 169.1439208984375 1038.408081054688 C -2.6800537109375 869.085205078125 -0.0001220703125 836.40966796875 -0.0001220703125 836.40966796875 L -0.0001220703125 0 Z"/>
  </g>
</svg>
