<svg id="Layer_1" data-name="Layer 1" xmlns="http://www.w3.org/2000/svg" xmlns:xlink="http://www.w3.org/1999/xlink" viewBox="0 0 975.76 583.01"><defs><style>.cls-1{fill:url(#linear-gradient);}.cls-10,.cls-2{fill:#96a8b9;}.cls-3{fill:#bfcbd5;}.cls-4{fill:url(#linear-gradient-2);}.cls-5{fill:url(#linear-gradient-3);}.cls-6{fill:#172b43;}.cls-7,.cls-9{fill:#1e3755;}.cls-8{fill:#335476;}.cls-9{opacity:0.2;}.cls-10{opacity:0.3;}.cls-11{fill:#8cb8b1;}.cls-12{fill:#7da59f;}.cls-13{fill:#a1cec7;}.cls-14{fill:#b3d8d2;}.cls-15{fill:#536f6a;}.cls-16{fill:#62817c;}.cls-17{fill:#99c9c2;}.cls-18{fill:#f19b7e;}.cls-19{fill:#c46d51;}.cls-20{fill:#f5c1b0;}.cls-21{fill:#d97a5a;}</style><linearGradient id="linear-gradient" x1="97.4" y1="1367.94" x2="980.22" y2="1119.14" gradientUnits="userSpaceOnUse"><stop offset="0.07" stop-color="#596e6a"/><stop offset="0.32" stop-color="#677f7b"/><stop offset="0.81" stop-color="#8baba6"/><stop offset="0.93" stop-color="#95b7b1"/></linearGradient><linearGradient id="linear-gradient-2" x1="97.4" y1="1367.94" x2="980.22" y2="1119.14" xlink:href="#linear-gradient"/><linearGradient id="linear-gradient-3" x1="606.46" y1="1404.19" x2="609.8" y2="1403.25" xlink:href="#linear-gradient"/></defs><title>cook</title><path class="cls-1" d="M1010.67,1202.36c-22,25.48-44.25,43.12-66.67,55.81q-6.09,3.43-12.18,6.41c-46.71,22.83-94.13,26.51-141.54,36.78l-2.84.61c-75.3,16.75-56.48,103.39-177.51,101.76-41.92-.57-83.2,6.49-125.1,11h0q-11.25,1.23-22.56,2.15h0c-1.89.15-3.77.3-5.66.43a393.07,393.07,0,0,1-56.1.29q-8.4-.6-16.87-1.7c-47.85-6.23-97.62-25-151-69.71-37.74-31.59-225.45-34.43-151.18-126.1s225.45-49.48,233.41-89.14c2.16-10.81,24.24-20.63,56.64-28.59l1.39-.34c86.85-21,245.6-28.85,296.21-7.08,69.92,30.08,113,1,161.37,19.56,18.54,7.13,60,9.33,99.95,14.08,1.64.19,3.27.39,4.91.6C997.85,1137,1054.33,1151.81,1010.67,1202.36Z" transform="translate(-64.24 -835.51)"/><path class="cls-2" d="M385.3,1055.81s-58.49-22.12-83.6-42.8c-8-6.6,53.28-50.76,65.18-61.42,8.5-7.62,89.22,9,89.22,9l53.09-39.89s-106.88-2-144.91,4-106,60.82-94.33,93.24c8,22.22,121.74,78.45,121.74,78.45l-3.36-42.71Z" transform="translate(-64.24 -835.51)"/><path class="cls-3" d="M473.21,933.35s-68.76-3.76-75.4-3.48-42.53,2-44.19,3.83-7.47,12-5.53,12,9.4-6.64,14.38-8.57,86.66,11.66,95,11.68S473.21,933.35,473.21,933.35Z" transform="translate(-64.24 -835.51)"/><path class="cls-4" d="M1010.67,1202.36c-26,30.08-52.3,49.24-78.85,62.22-47.65,23.29-96,26.64-144.38,37.39-75.3,16.75-56.48,103.39-177.51,101.76-75.08-1-148.1,22.4-226.29,12.22-47.85-6.23-97.62-25-151-69.71-37.74-31.59-225.45-34.43-151.18-126.1s225.45-49.48,233.41-89.14c2.16-10.81,24.24-20.63,56.64-28.59,86.55-21.28,246.72-29.3,297.6-7.42,69.92,30.08,113,1,161.37,19.56,18.54,7.13,60,9.33,99.95,14.08C994.83,1136.28,1055.47,1150.49,1010.67,1202.36Z" transform="translate(-64.24 -835.51)"/><path class="cls-5" d="M609.93,1403.73c-1.2,0-2.4,0-3.6,0C607.53,1403.7,608.73,1403.71,609.93,1403.73Z" transform="translate(-64.24 -835.51)"/><path class="cls-6" d="M944,1258.17q-6.09,3.43-12.18,6.41c-46.71,22.83-94.13,26.51-141.54,36.78l-2.84.61c-75.3,16.75-56.48,103.39-177.51,101.76-41.92-.57-83.2,6.49-125.1,11h0q-11.25,1.23-22.56,2.15h0c-1.89.15-3.77.3-5.66.43a393.07,393.07,0,0,1-56.1.29c-8.73-66.58-22.05-240.56-27.61-315.58-1.62-21.82-2.58-35.27-2.58-35.27l559.23-23.62,5.79,86Z" transform="translate(-64.24 -835.51)"/><path class="cls-2" d="M929.56,1031.34s78.19,18.61,89.3,26.22c8.34,5.72,32,21.12,15.35,67.15-23.63,65.41-161.52,42-161.52,42L887.17,1145s79.89,8.5,96.52-13.24,14.71-41.71,14.07-52.19-10.24-15.72-29.82-20.08c-21.6-4.8-43.54,2.23-43.54,2.23Z" transform="translate(-64.24 -835.51)"/><path class="cls-7" d="M912.88,1043.18c0,107.93-119.07,195.42-266,195.42s-266-87.49-266-195.42S500,847.76,646.92,847.76,912.88,935.25,912.88,1043.18Z" transform="translate(-64.24 -835.51)"/><path class="cls-8" d="M912.88,1043.18c0,107.93-119.07,195.42-266,195.42s-266-87.49-266-195.42S500,847.76,646.92,847.76,912.88,935.25,912.88,1043.18Z" transform="translate(-64.24 -835.51)"/><path class="cls-3" d="M1011.24,1104.29c2.09-8.4,20.63-23,15.48-31.26s-27.8-21.46-34.94-22.69-25.87-6.16-25.87-6.16l-30.79-9.31-1.23,3.89,31,9.36s29.8,7.15,32.76,9.86,21.67,12.07,18.72,18.72-12.47,23.64-12.32,29.31-5.17,26.6-7.88,29.07S1006.06,1125,1011.24,1104.29Z" transform="translate(-64.24 -835.51)"/><path class="cls-9" d="M646.92,1034.13c-106.76,0-198.23,40.73-236.47,98.58,44.2,62.89,133.5,105.89,236.47,105.89s192.27-43,236.47-105.89C845.15,1074.86,753.68,1034.13,646.92,1034.13Z" transform="translate(-64.24 -835.51)"/><path class="cls-10" d="M907.76,1081.52C884.61,1005,776.63,947.09,646.92,947.09S409.23,1005,386.08,1081.52c24.25,89.57,131.81,157.08,260.84,157.08S883.51,1171.09,907.76,1081.52Z" transform="translate(-64.24 -835.51)"/><path class="cls-11" d="M386.35,1095.73s81.15-55.71,86.27-64,9.9-16.23,15.49-16.23,37.51-28,37.51-28,7.8-8.89,10.87-8.49,12.27-8.49,12.27-9.68,15.49-13.65,15.49-13.65l13.29-6.82s11.87-9.79,13.65-12.46,15.13-8.61,15.13-8.61l15.13,6.25s-9.49,10.37-10.68,11.26S590,957.84,587.33,957.84s-11.57,6.82-15.42,8.9S556.48,981,555.29,982.46s-19.58,12.47-21.66,16.62-30.56,28.78-33.82,30.86-11,6.45-11.57,8.86-9.5,13.68-13.06,13.68-17.2,13.06-19,16-13.06,12.16-15.14,12.75-11,8.9-12.75,11-13.06,7.45-17.8,7.43-19,9.48-19,9.48Z" transform="translate(-64.24 -835.51)"/><path class="cls-12" d="M382.58,1097.29s49,16.28,58.07,17.18,23.29,6.81,23.29,6.81,28.51,10.08,33,10.08,33.38,8,37.2,8,22.25-.7,24,0,17.73,8.69,21.56,8.69,66.85,12.6,73,12.6,35.79,7.59,39,8.32,27.47,9.4,29.64,9.4,5.42,5.78,5.42,5.78-3.25,5.06-6.86,5.06-38-6.87-38-6.87-46.27-11.56-50.24-11.56-45.91-11.21-51.33-11.21-49.89-9-53.5-9-15.55-5.42-19.52-5.42-18.8-4.34-26-5.06-31.45-10.84-33.62-10.84-15.9-5.07-20.6-5.43-29.69-15.88-35.63-14.63S382.58,1097.29,382.58,1097.29Z" transform="translate(-64.24 -835.51)"/><path class="cls-13" d="M405.92,1140.65s12.36-8.77,12.36-11.56,7.21-12.23,9.56-14.62,15.55-15.5,18.74-17.18,27.5-26.4,28.7-28,20.33-23.92,21.92-27.11,8.64-6.21,8.64-8.2,9.94-8.81,9.94-10.51,4.55-10.17,7.67-11.05,9.66-8.27,9.66-8.27-.62-6.45,3.38-8.19,13.12-6.55,12.83-9.26,4.06-6,3.87-7.62,2.36-4.19,4.92-4.47,6.09.23,9.94-3.83S579.7,966.38,582,965s6.82-1.14,6.82,1.7-4,15.91-6.25,16.48-9.71,4-8.83,6-5.66,8.23-6.8,8.52-7.17-.81-8.23,4.26-14.21,9.14-14.21,10.54-9.66,9.06-9.66,10.76-3.12,8.35-5.11,8.58a5.71,5.71,0,0,0-5.4,4.77c-.85,3.7-12.78,14.08-12.78,15.85s-14.41,16.25-14.17,17.39-37,39.49-37.25,42.9-42,39.77-42,39.77Z" transform="translate(-64.24 -835.51)"/><path class="cls-12" d="M386.35,1117.35s41.24-13.33,45-14.2,11.59-7.08,15.22-5.86,46.62-3.7,50.77-4.86,11.89-2.94,14.4-2.94,3.21,1.81,6.07,1.81,7.84-4.41,9.92-4.41h7.75c1,0,8.79-4.72,10.68-4.82s10.59-6.8,12.39-6.8,5.48-2.37,6.23-2.37,5.3.95,7.28.95a71.22,71.22,0,0,0,8.61-.95c1.42-.28,14.26-2.82,15.25-2.82s9.1-1.28,10.52-2,7.5-5.1,8.87-5.11,2.51-3.71,2.51-3.71,16.88-3.73,18.25-4.29,4.84-5.47,8.64-5.47,13.93-2.42,14.19-2.42a32.39,32.39,0,0,0,5-5.54c.43-1,11.07-4.41,12.8-4.92s18.76-4.86,18.76-4.86l9.85-1.29s-21,15-25.26,16.72-13.38,5.94-14.49,8.17-5.2,7.43-8,7.43-8.17-.37-9.66,1.12-11.33,7.43-13.19,8-15.79,5.75-17.64,6.31-6.5,3.34-9.85,3.34-13.56,6.51-13.56,6.51-12.63,4.45-14.49,4.45-9.1-.74-10.4-.74-15.79,2-17.27,2-19.32,3.91-21.18,4.83-10,7.43-12.53,7.43-7.35-1.85-10.5-.74-57.69,8.91-59.47,9.13-24.32,5.24-25.09,6.33-16.46,6.64-16.84,8.42-2.42,9.18-2.42,9.18Z" transform="translate(-64.24 -835.51)"/><path class="cls-14" d="M509.63,1182.3v19.31s28.71-1,32.77,0,16.6-1,21.85,0,20.11.24,24.54.29,17.29,1.1,23.39.23,17.62-3.23,21.34-3.23h33.2c3,0,50.81-.68,56.23-.34s16.6.34,19.31.34,23.71,4.78,31.84,3.58,20.32-1.55,22.7-1.89,16.59-1,16.59-1l29.14-19.64,3.72-5.09s-52.5-2.37-57.24-2.37-29.14-1-33.88,0-71.73,5.08-77.19,4.75-46.38,7.45-49.64,7.11-11.38-2-16.12-2-16.3,1.35-23.39,1.35-26.85-.34-35.6-.34S517.17,1181.28,509.63,1182.3Z" transform="translate(-64.24 -835.51)"/><path class="cls-12" d="M451.62,1187.35l23,15.32s47.43-8.84,54.54-7.66,46.07-.86,52.84-1.87,52.56-5.49,55.75-5.79,153.6-7.76,158.68-7.76,55.89-7.57,55.89-7.57l23.71-28.77s-26.08,9.91-31.5,10.59-4.4.34-23,5.08-20.32,7.46-33.53,7.79-60.3,6.4-73.51,6.25-83.33,10-102.3,9.34-81.76-5.62-90.59-5.62-26.28,6.39-34.38,6.39S451.62,1187.35,451.62,1187.35Z" transform="translate(-64.24 -835.51)"/><path class="cls-15" d="M431.23,1168.83l31.92,20.38s43.46-14.49,48.61-14.49,19.4-6.88,20.87-5.89,20.56-.1,20.56-.1,24.17-4.59,31.17-5.86a133.69,133.69,0,0,1,24.26-2.62c9,0,22.14-5.59,29.16-6s27.93-5.22,33.15-5.22,26.87,1.12,33.22,0,34.33.74,36.57,0,56.34-3.36,56.34-3.36,9.71-2.29,16.05-2.45,25.37-4.85,25.37-4.85-21.27-7.63-26.86-7.63-35.08.38-44,0-28-.74-37.31,0-49.09,4.37-56,6-34.8,6.74-41.21,6.43-59.86,6.73-64.87,9.2-44.55,6.9-53.74,7.33-44,4.32-47.33,5.71S431.23,1168.83,431.23,1168.83Z" transform="translate(-64.24 -835.51)"/><path class="cls-13" d="M576.21,1131.8,572,1145.63s44.48,8.24,55.12,8.45,23.68,2.5,26.19,2.5,18.9,4,24.6,4,9.1-.22,13,0,14.43,2.72,14.43,2.72,22.07-1.58,28-1.58,33.1,2.49,40.58,2.49S792,1163,796.54,1163s17.91-6.35,23.58-6.35,9.58.11,13.67-.84,22.47-5.39,26.15-6.7,14.29-3.67,14.29-3.67l4.38-12.59s-23.35-.46-27.2.22-12.47,3.79-18.59,5.3-24.49.37-31.06,2-29.93,5.21-48.06,5.21-29.86.45-48.37.45-57.51-2.6-63.4-2.77-18.48-3.35-26.59-3.8S576.21,1131.8,576.21,1131.8Z" transform="translate(-64.24 -835.51)"/><path class="cls-14" d="M435.75,1109.15v10.74s63.42,15.9,68.15,15.9H523c7.8,0,39.43,2,42.48,2.61s17.88,2.16,17.88,2.16h58s38.37-3,45.12-3,135.79-4.45,138.45-3.61,21.31,2.9,21.31,2.9-16.12-17.45-29.69-17.45H766.79c-12,0-35.23.32-37.49,1s-49.13,3.58-58.82,4.54-9.05.66-24.24,0-52.68-2.6-64.64-2.6-56.13-1.94-63.78-1.94-19.6-4.53-38.35-4.53S441.48,1109,435.75,1109.15Z" transform="translate(-64.24 -835.51)"/><path class="cls-16" d="M422.81,1131.8l8.42,14.64s36.58-17,47.27-16.1,30.55-1.58,32.72-1.58,27.29,3.1,38.46,0,51.8-4.4,58.94-3.91,42.81-4.78,42.81-4.78l30.4-2.79a114.73,114.73,0,0,0,11.78-2.81c3.42-1.22,18.93-8,23.27-8s12.72-3.1,16.75-3.1,13.34-3.2,13.34-3.2l50.56,2.58s17.37-11.79,10.24-12.72-59.25-10.85-66.38-9.92-13,2.87-14.58,4.38-43.74,13.33-53,12.85-29.22,2.73-32.76,2.83-2.6,2.58-9.43,5.06-63.3,9.27-67.32,9.29-26.36-2.81-31.94,0-41.88,4-45,4S439.7,1123,422.81,1131.8Z" transform="translate(-64.24 -835.51)"/><path class="cls-11" d="M514.52,1214.73l10.14,5.43s4.16-.06,9.41-.1c7.88-.07,18.21-.12,20.63.1,4,.36,18.16-.36,25.4,0s12.32,3.62,17.76,3.62,19.93-5.07,25.36-4.53,47.11-6.34,51.46-6.34,8,2.18,13,0,14.2-5.79,17.61-5.79,10.65-3.1,18.26-4.45,16.67-9.69,16.67-9.69l-31.88-3.77s-38.75,9.44-41.66,9.69-12.25,0-18.63,0-20.35,7.4-28.13,5.32-23.21.36-31.17.72-24.11,4.71-35.6,5.07-17.66.37-24.54.37S514.52,1214.73,514.52,1214.73Z" transform="translate(-64.24 -835.51)"/><path class="cls-15" d="M693.88,1215.45s5.07,7.25,5.07,8.33-5.79,8-8.33,8H667.43c-6.16,0-17.39,2.53-19.57,2.53H630.11c-7.61,0-22.47,1.45-27.18,1.81s-41.31-2.17-41.31-2.17l-25.13-8.14-2.42-5.73s26.1.1,34.08.83,25.72,5.07,29.71,2.89,20.33-4.28,25.36-4.53,22.11-.18,26.09-.18,25.37-6.16,25.37-6.16S690.26,1215.09,693.88,1215.45Z" transform="translate(-64.24 -835.51)"/><path class="cls-17" d="M629.89,979.09l-11.36,15.4s32.7,21.25,36.34,24,14.08,10.27,19.53,12,31.34,5.39,34.06,8.32,23.62,7.46,27.71,10.64,22.25,11.81,23.61,15,26.8,13.87,28.62,15.56,29.07,11.16,33.61,10.74,31.79,12.76,35.88,12.76,8.55-4.55,11.55-6.2-21.74-21.14-27.74-21.14-42.72-10.49-46.1-10.87-24-13.87-26.23-15-34.48-12.37-39.73-15.74-27-12.21-33-16-27.73-11.69-29.23-14.32S627.57,985.1,629.89,979.09Z" transform="translate(-64.24 -835.51)"/><path class="cls-11" d="M553.19,1009.68s29.67,15.12,35.6,16.25,27.32,9,29.74,10.49,23.41,6.75,26,7.5,23.8,5.3,27.45,7,28.39,14.78,31.76,16.27,37.85,9.19,42,12.84,22.86,6.65,27.73,7.78,27,26.16,29.61,25.45,14.62,11.24,19.11,11.63,26.16,10.11,29.2,8.25,15.4-2.76,15.4-2.76-12.74-20-18.74-21.19-21.73-7.92-28.11-9-41-27.63-48.61-28.61-27.84-13-36.09-15.22-34.78-17.62-52.81-21.18-30-6.18-37.88-7.31-21-6.13-29.23-11.24-22.12-7.12-28.49-10.49-22.6-18.49-22.6-18.49l-16,16.24Z" transform="translate(-64.24 -835.51)"/><path class="cls-7" d="M646.92,835.51c-156.09,0-282.64,93-282.64,207.67s126.55,207.67,282.64,207.67,282.63-93,282.63-207.67S803,835.51,646.92,835.51Zm0,403.09c-146.89,0-266-87.49-266-195.42S500,847.76,646.92,847.76s266,87.49,266,195.42S793.81,1238.6,646.92,1238.6Z" transform="translate(-64.24 -835.51)"/><path class="cls-18" d="M398.67,1417.51c-3.06-.24-6.13-.52-9.2-.86-1.16-.12-2.33-.26-3.49-.4l-2.34-.3c-8.4-1.09-16.86-2.58-25.38-4.52-1.25-.28-2.5-.57-3.76-.88L251.41,1235.67s-26-22-26-38.14c-11-4.62-19.07-20.23-17.92-28.32-3.5-1.75-6.59-5.41-9-9.56-3.87-6.81-5.77-14.94-4.34-18.17-6.93-7.52-16.8-21.37-10.21-32.7-8.66-8.24-17.72-27.62-5.56-33.8-2.06-12.77-.78-20.71,3.93-23.35s14.69-2.44,23.54,9.61c12.24.19,22.22,12.43,19.4,27.69,17.71,4.15,20.91,15.07,20.34,26.18,13.94-.19,15,25.49,14.7,27.86,4.46.54,7.83,3.77,10.07,8,3.64,6.89,4.31,16.49,1.82,21.67,10.31-.32,18.69,28,14,33.5,5,5.8-.48,17.72-.48,17.72s3.41,14.71,6.63,21.18C294.48,1249.24,355.51,1347.88,398.67,1417.51Z" transform="translate(-64.24 -835.51)"/><path class="cls-12" d="M604.72,927.87s-.74,1.56-7,2.28c-4.35.5-13.09,5.35-13.31,7.85-.51,5.59-6.85,10.94-6.85,10.94s1.11,7.33,3,7.15c4.9-.46,6.75,1.75,6.75,1.75s9,0,12.17-3.25c1.93-2,9-3.22,9.5-4.55s4.55-6.15,4.55-6.15,6.84-3.21,7.9-4.28,1.46-7.89,1.46-8.83-6.55-5.66-8-5.12S604.72,927.87,604.72,927.87Z" transform="translate(-64.24 -835.51)"/><path class="cls-19" d="M210,1124c-7.64-.44-1.39,18.06,7.42,33.36s53.77,100.12,53.77,100.12l70,94.1L270.7,1221.34S218.32,1124.5,210,1124Z" transform="translate(-64.24 -835.51)"/><path class="cls-20" d="M290.61,1258l98.86,158.62c-1.16-.12-2.33-.26-3.49-.4l-2.34-.3c-8.4-1.09-16.86-2.58-25.38-4.52L254.65,1235.67s4.43-.38,8.55-.48h.05c2.95-.06,5.72,0,6.58.48C271.88,1236.8,290.61,1258,290.61,1258Z" transform="translate(-64.24 -835.51)"/><path class="cls-21" d="M287.36,1258,386,1416.25l-2.34-.3c-8.4-1.09-16.86-2.58-25.38-4.52-1.25-.28-2.5-.57-3.76-.88L251.41,1235.67s7.22-.62,11.79-.48h.05a9.69,9.69,0,0,1,3.34.48C268.65,1236.8,287.36,1258,287.36,1258Z" transform="translate(-64.24 -835.51)"/><path class="cls-18" d="M467.8,1416.46l-4.4.38q-7.27.6-14.58,1l-4.33.22c-3.4.16-6.82.28-10.23.36-10.74-49.72-37.78-168.74-38.79-170.75-1.26-2.51-10.33-31.12-16.62-33.53s-22.22-17-22.22-18.7-8-13.7-.55-21.66c-13.52-7.78-18.44-19.63-14.87-30.74-10-9.66-11.15-20-10.25-27,.65-5.08,2.4-8.43,2.71-8.59-10-5.92-15.55-26.85-5-34.25-13.52-10-17-35.92-3.87-37.59,0,0-8.16-22.61,9.44-28.48s20.51,11.59,20.51,11.59c13.52-2.47,20.1,14.33,20.1,19.1v11.72s10-3.24,12.33,8.8A176.07,176.07,0,0,1,390,1079s9.43,3.75,10.15,17.31a40.4,40.4,0,0,1-1.19,11.34c18,21.77,4.58,32.94,7.44,34.94,12.32,8.31,7.16,32.66,8,42.11C414.92,1190.67,445.37,1321,467.8,1416.46Z" transform="translate(-64.24 -835.51)"/><path class="cls-21" d="M444.49,1418.06c-3.4.16-6.82.28-10.23.36-10.74-49.72-37.78-168.74-38.79-170.75-1.26-2.51-10.33-31.12-16.62-33.53,0,0,15.9-1.32,29,51.92C415.06,1295.09,431.25,1362.63,444.49,1418.06Z" transform="translate(-64.24 -835.51)"/><path class="cls-20" d="M380.2,1100.37c19.38,45.8,58.58,209.51,83.2,316.47q-7.27.6-14.58,1c-24.68-94.21-59.68-227.67-63.4-240.7-4.05-14.24-15.29-52.45-17.21-73.9-.82-9.2.06-15.32,4-15.15C374.17,1088.17,376.9,1092.56,380.2,1100.37Z" transform="translate(-64.24 -835.51)"/></svg>