<svg id="Layer_1" data-name="Layer 1" xmlns="http://www.w3.org/2000/svg" viewBox="0 0 458.34 458.36"><defs><style>.cls-1{fill:#99cac2;}.cls-2{fill:#fff;}.cls-3{fill:#b3d8d2;}</style></defs><title>IconsArtboard 12</title><g id="TqoVPB"><path class="cls-1" d="M229.23,458.36C104,458.55-2,356.88,0,225.15c1-62.31,24.29-116,68.9-159.69C113.33,22,167.28-.08,229.22,0,293.58.08,349,23.62,393.91,70c43.94,45.45,65.53,100.49,64.39,163.56C456,358.13,354.75,458.18,229.23,458.36Zm-49.14-229c0,36.15.17,72.31-.13,108.46-.07,8.94,8.84,18,18,17.88,18.27-.25,36.54-.06,54.81-.08a18.15,18.15,0,0,0,18-18.09q0-56,0-111.91a18.15,18.15,0,0,0-18.06-18.05c-11.95,0-23.91,0-35.87,0-1.9,0-3-.27-3-2.61q.09-33,0-66c0-2,.71-2.68,2.69-2.65,5.83.09,11.67.11,17.5,0,2.25-.05,3,.68,3,2.95-.11,7.55,0,15.11-.08,22.67,0,2.32.68,3.18,3.1,3.15q13.92-.16,27.83,0c2.52,0,3-.93,3-3.18-.09-13.39-.44-26.8.09-40.17.37-9.26-7.78-19.42-19.48-19.27-17.5.23-35,.05-52.51.07a18.52,18.52,0,0,0-18.81,18.9Q180.08,175.39,180.09,229.33Zm102.17-57.47q0,25.39,0,50.79a18.3,18.3,0,0,0,18.65,18.71c11.19,0,22.38,0,33.57,0,2,0,2.94.42,2.93,2.68q-.09,37.59,0,75.17c0,2.05-.75,2.65-2.7,2.62-5.64-.09-11.29-.17-16.93,0-2.78.1-3.58-.81-3.56-3.56.13-13.49,0-27,.11-40.46,0-2.91-.93-3.79-3.81-3.74-8.22.17-16.45.19-24.67,0-3-.07-3.66,1-3.65,3.79.11,19.9.05,39.79.07,59.68a18,18,0,0,0,18,18c17.41,0,34.83-.35,52.22.14,10.49.29,18.92-9.79,18.84-18.93-.32-36-.17-71.92-.09-107.88a22.35,22.35,0,0,0-5.22-14.5c-3.64-4.54-8.19-7.09-14.34-6.95-11.47.25-23,0-34.43.1-1.93,0-3-.32-3-2.63q.09-33,0-66c0-2,.75-2.67,2.71-2.64,5.84.08,11.67.11,17.5,0,2.27-.05,3,.71,3,3-.11,7.56,0,15.11-.07,22.67,0,2.33.7,3.17,3.1,3.14q13.77-.16,27.55,0c2.46,0,3.28-.59,3.26-3.18-.13-13.58-.05-27.16-.06-40.74a18.26,18.26,0,0,0-18.7-18.63q-25.68,0-51.36,0a18.44,18.44,0,0,0-18.88,18.83Q282.25,146.62,282.26,171.86ZM87.1,355.59c11,0,21.4,0,31.82-.09.67,0,1.57-1.21,1.91-2a8.12,8.12,0,0,0,.09-2.84q0-53-.06-105.89c0-2.63.72-3.48,3.4-3.42,7.45.17,14.92,0,22.38.1,2.21,0,3-.67,3-2.95q-.14-13.9,0-27.83c0-2.35-.72-3.17-3.11-3.13-7.46.12-14.93-.05-22.39.09-2.48,0-3.3-.66-3.29-3.22q.15-32.43,0-64.85c0-2.57.81-3.25,3.29-3.23,13.77.1,27.55,0,41.32.09,2.37,0,3.15-.7,3.12-3.08-.11-9,0-18,0-27,0-3.78,0-3.79-3.86-3.79H90.94c-3.83,0-3.84,0-3.84,4V355.59Z"/><path class="cls-2" d="M180.09,229.33q0-54,0-107.9a18.52,18.52,0,0,1,18.81-18.9c17.5,0,35,.16,52.51-.07,11.7-.15,19.85,10,19.48,19.27-.53,13.37-.18,26.78-.09,40.17,0,2.25-.45,3.22-3,3.18q-13.9-.2-27.83,0c-2.42,0-3.13-.83-3.1-3.15.1-7.56,0-15.12.08-22.67,0-2.27-.73-3-3-2.95-5.83.12-11.67.1-17.5,0-2,0-2.7.65-2.69,2.65q.06,33,0,66c0,2.34,1.12,2.61,3,2.61,12,0,23.92,0,35.87,0a18.15,18.15,0,0,1,18.06,18.05q0,55.95,0,111.91a18.15,18.15,0,0,1-18,18.09c-18.27,0-36.54-.17-54.81.08-9.13.13-18-8.94-18-17.88C180.26,301.64,180.09,265.48,180.09,229.33Zm56.85,52.52c0-12.53,0-25.06,0-37.59,0-2-.43-3-2.69-2.93-5.93.12-11.87.1-17.79,0-2,0-2.68.68-2.68,2.66q.06,37.59,0,75.18c0,2,.74,2.66,2.7,2.63,5.74-.09,11.48-.14,17.22,0,2.53.08,3.28-.73,3.26-3.25C236.87,306.33,236.94,294.09,236.94,281.85Z"/><path class="cls-2" d="M282.26,171.86q0-25.25,0-50.5a18.44,18.44,0,0,1,18.88-18.83q25.68,0,51.36,0a18.26,18.26,0,0,1,18.7,18.63c0,13.58-.07,27.16.06,40.74,0,2.59-.8,3.22-3.26,3.18q-13.77-.2-27.55,0c-2.4,0-3.14-.81-3.1-3.14.1-7.56,0-15.11.07-22.67,0-2.25-.69-3-3-3-5.83.12-11.66.09-17.5,0-2,0-2.71.62-2.71,2.64q.08,33,0,66c0,2.31,1.07,2.64,3,2.63,11.47-.06,23,.15,34.43-.1,6.15-.14,10.7,2.41,14.34,6.95a22.35,22.35,0,0,1,5.22,14.5c-.08,36-.23,71.92.09,107.88.08,9.14-8.35,19.22-18.84,18.93-17.39-.49-34.81-.12-52.22-.14a18,18,0,0,1-18-18c0-19.89,0-39.78-.07-59.68,0-2.81.65-3.86,3.65-3.79,8.22.19,16.45.17,24.67,0,2.88-.05,3.84.83,3.81,3.74-.12,13.49,0,27-.11,40.46,0,2.75.78,3.66,3.56,3.56,5.64-.2,11.29-.12,16.93,0,2,0,2.71-.57,2.7-2.62q-.07-37.57,0-75.17c0-2.26-.95-2.69-2.93-2.68-11.19.06-22.38,0-33.57,0a18.3,18.3,0,0,1-18.65-18.71Q282.24,197.26,282.26,171.86Z"/><path class="cls-2" d="M87.1,355.59V106.52c0-4,0-4,3.84-4h73.75c3.84,0,3.86,0,3.86,3.79,0,9-.06,18,0,27,0,2.38-.75,3.1-3.12,3.08-13.77-.09-27.55,0-41.32-.09-2.48,0-3.3.66-3.29,3.23q.13,32.41,0,64.85c0,2.56.81,3.27,3.29,3.22,7.46-.14,14.93,0,22.39-.09,2.39,0,3.14.78,3.11,3.13q-.14,13.92,0,27.83c0,2.28-.8,3-3,2.95-7.46-.11-14.93.07-22.38-.1-2.68-.06-3.4.79-3.4,3.42q.12,52.95.06,105.89a8.12,8.12,0,0,1-.09,2.84c-.34.83-1.24,2-1.91,2C108.5,355.63,98.08,355.59,87.1,355.59Z"/><path class="cls-3" d="M236.94,281.85c0,12.24-.07,24.48.05,36.73,0,2.52-.73,3.33-3.26,3.25-5.74-.16-11.48-.11-17.22,0-2,0-2.71-.61-2.7-2.63q.06-37.59,0-75.18c0-2,.68-2.69,2.68-2.66,5.92.09,11.86.11,17.79,0,2.26-.05,2.7.94,2.69,2.93C236.91,256.79,236.94,269.32,236.94,281.85Z"/></g></svg>