<svg id="Layer_1" data-name="Layer 1" xmlns="http://www.w3.org/2000/svg" viewBox="0 0 458.47 458.36"><defs><style>.cls-1{fill:#99cac2;}.cls-2{fill:#fff;}</style></defs><title>IconsArtboard 11</title><g id="qiyBob"><path class="cls-1" d="M229.4,458.36C103.16,459.25-2.22,354.82,0,224.94,2.17,101.78,103.85-2.55,234.36.05,357.65,2.5,458.7,103.57,458.47,229,458.24,356.37,356.42,458.4,229.4,458.36Zm22-227.63c11.12,0,21.22-.11,31.31.05,4.17.06,6.23-1.22,6.58-5.76.92-12.07,2.38-24.1,3.4-36.17.64-7.5.28-7.77-7.42-7.81-9.71,0-19.42-.12-29.12.18-4,.12-5.49-1.25-5.33-5.18.28-7.06.11-14.14.5-21.19.5-9.15,4.68-13.55,14-14.21,7.44-.54,14.95-.42,22.42-.31,4.6.07,6.41-1.51,6.27-6.37-.31-11.52-.34-23.07,0-34.58.17-5.6-1.77-7.64-7.3-7.45-14.54.51-29.1.61-43.64,1-26.61.79-46.65,19.07-49.24,45.78-1.2,12.43-.92,25-1,37.53,0,4.18-1.24,5.76-5.58,5.48-5.64-.37-11.32,0-17-.17-4.13-.14-5.76,1.39-5.69,5.66q.3,18.81,0,37.62c-.07,4.36,1.85,5.75,5.79,5.69,4.85-.08,9.71.1,14.56,0,7.7-.24,7.72-.31,7.72,7.39q0,60.68,0,121.36c0,8.46.18,8.66,8.38,8.68q20.93,0,41.86,0c8.35,0,8.63-.28,8.63-8.48q0-49.77-.09-99.52Z"/><path class="cls-2" d="M251.41,230.73V260q0,49.76.09,99.52c0,8.2-.28,8.47-8.63,8.48q-20.93,0-41.86,0c-8.2,0-8.38-.22-8.38-8.68q0-60.67,0-121.36c0-7.7,0-7.63-7.72-7.39-4.85.15-9.71,0-14.56,0-3.94.06-5.86-1.33-5.79-5.69q.33-18.81,0-37.62c-.07-4.27,1.56-5.8,5.69-5.66,5.66.2,11.34-.2,17,.17,4.34.28,5.56-1.3,5.58-5.48.08-12.52-.2-25.1,1-37.53,2.59-26.71,22.63-45,49.24-45.78,14.54-.44,29.1-.54,43.64-1,5.53-.19,7.47,1.85,7.3,7.45-.36,11.51-.33,23.06,0,34.58.14,4.86-1.67,6.44-6.27,6.37-7.47-.11-15-.23-22.42.31-9.29.66-13.47,5.06-14,14.21-.39,7.05-.22,14.13-.5,21.19-.16,3.93,1.31,5.3,5.33,5.18,9.7-.3,19.41-.23,29.12-.18,7.7,0,8.06.31,7.42,7.81-1,12.07-2.48,24.1-3.4,36.17-.35,4.54-2.41,5.82-6.58,5.76C272.63,230.62,262.53,230.73,251.41,230.73Z"/></g></svg>