<svg id="Layer_1" data-name="Layer 1" xmlns="http://www.w3.org/2000/svg" viewBox="0 0 458.37 458.37"><defs><style>.cls-1{fill:#99cac2;}.cls-2{fill:#fff;}</style></defs><title>IconsArtboard 13</title><g id="_6pNlka.tif" data-name="6pNlka.tif"><path class="cls-1" d="M0,228.73C.85,101.48,103.45-.73,229.61,0,357.14.75,459.26,103.7,458.37,230.62S354,459.41,227.23,458.37C101.27,457.33-.83,354.15,0,228.73ZM357.54,337c.12-1.72.28-2.87.28-4,0-28.49.18-57-.12-85.46a114.16,114.16,0,0,0-2.52-23.77c-5.2-23.1-18.15-39.59-42.29-44.66-23.93-5-44.67.14-59.58,21.13-.34.48-.77.9-2.07,2.38V181.55H199.83V337h51.53v-5.73c0-27.66,0-55.31,0-83,0-10.24,4-18.48,12.08-24.57,14.94-11.29,35.26-4.72,40.25,13.26a73.2,73.2,0,0,1,2.25,18.75c.24,25.15.09,50.31.11,75.46,0,1.93.16,3.85.25,5.89Zm-187.26,0V181.59H119.2V337ZM144.42,159.7c14.57.1,25.78-7.61,28.84-19.82,3.62-14.5-4.12-28.38-18.17-32.58-16.26-4.86-32.82,2.31-37.74,16.34C110.87,142.14,124,159.58,144.42,159.7Z"/><path class="cls-2" d="M357.54,337H306.28c-.09-2-.25-4-.25-5.89,0-25.15.13-50.31-.11-75.46a73.2,73.2,0,0,0-2.25-18.75c-5-18-25.31-24.55-40.25-13.26-8.07,6.09-12.1,14.33-12.08,24.57.06,27.66,0,55.31,0,83V337H199.83V181.55h51.41v21.09c1.3-1.48,1.73-1.9,2.07-2.38,14.91-21,35.65-26.15,59.58-21.13C337,184.2,350,200.69,355.18,223.79a114.16,114.16,0,0,1,2.52,23.77c.3,28.48.13,57,.12,85.46C357.82,334.17,357.66,335.32,357.54,337Z"/><path class="cls-2" d="M170.28,337H119.2V181.59h51.08Z"/><path class="cls-2" d="M144.42,159.7c-20.46-.12-33.55-17.56-27.07-36.06,4.92-14,21.48-21.2,37.74-16.34,14,4.2,21.79,18.08,18.17,32.58C170.2,152.09,159,159.8,144.42,159.7Z"/></g></svg>