<svg xmlns="http://www.w3.org/2000/svg" viewBox="0 0 220.05 68.29"><defs><style>.cls-1{fill:#fff;}.cls-2{fill:#004373;}</style></defs><title>Asset 1</title><g id="Layer_2" data-name="Layer 2"><g id="Layer_1-2" data-name="Layer 1"><path class="cls-1" d="M5.75,26H18.4a2.19,2.19,0,0,1,2,2.32,2.26,2.26,0,0,1-2,2.51H5.75V66.05c0,1.35-1.41,2.24-3,2.24S0,67.4,0,66.05V16.47C0,7.43,7.26,0,15.75,0H18a2.53,2.53,0,0,1,2.48,2.69A2.5,2.5,0,0,1,18,5.28h-1.5A10.79,10.79,0,0,0,5.75,16Z"/><path class="cls-1" d="M202.39,41.08c0,6.9-3.8,7.16-7.7,7.16h-20v3.32c0,7.16,5.66,11.63,13.45,11.63,7,0,8.67-3.58,10.61-3.58,1.42,0,2.48,1.7,2.48,2.78,0,2.14-5,5.9-13.27,5.9-11.15,0-19-6.8-19-17v-10a16.8,16.8,0,0,1,16.89-16.47A16.35,16.35,0,0,1,202.39,41.08Zm-10,2.87c3.54,0,4.43-.54,4.43-3.05a11.2,11.2,0,0,0-11.06-11.27A11,11,0,0,0,174.7,40.55V44Z"/><path class="cls-1" d="M220.05,2.15V66a2.72,2.72,0,0,1-2.92,2.32A2.68,2.68,0,0,1,214.3,66V2.15C214.3.9,215.54,0,217.13,0S220.05.9,220.05,2.15Z"/><path class="cls-1" d="M157,42.16V66.05c0,1.08-1.24,2.24-2.92,2.24-1.51,0-2.84-1.16-2.84-2.24V42.16c0-5.82-4.86-11.46-11.06-11.46s-11.06,5.55-11.06,11.46v24c0,1.17-1.32,2.15-2.91,2.15s-2.84-1-2.84-2.15v-24a16.82,16.82,0,1,1,33.63,0Z"/><path class="cls-1" d="M111.5,42.16V66.05c0,1.08-1.23,2.24-2.92,2.24-1.5,0-2.83-1.16-2.83-2.24V42.16c0-5.82-4.86-11.46-11.06-11.46S83.63,36.25,83.63,42.16v24c0,1.17-1.32,2.15-2.92,2.15s-2.83-1-2.83-2.15v-24a16.81,16.81,0,1,1,33.62,0Z"/><path class="cls-2" d="M60.23,46.73v4.73A11.85,11.85,0,0,1,55,61.1a4.82,4.82,0,0,0-2.18,4v2.79a15.9,15.9,0,0,1-7.26,0V65.08a4.81,4.81,0,0,0-2.19-4,11.87,11.87,0,0,1-5.25-9.64V46.73H60.23Z"/><path class="cls-1" d="M45.53,65.08v2.79c-.23-.05-.47-.11-.7-.18s-.46-.13-.69-.21A12.68,12.68,0,0,1,42.8,67l-.65-.29-.59-.29a18.25,18.25,0,0,1-3-2l-.37-.31-.36-.32-.58-.57c-.18-.19-.37-.39-.55-.6s-.36-.4-.53-.61c-.32-.4-.63-.81-.92-1.23a16.67,16.67,0,0,1-1-1.63L34,58.57c-.12-.25-.23-.5-.34-.74s-.21-.5-.3-.76a16.37,16.37,0,0,1-.54-1.72c0-.21-.09-.41-.13-.62a5.13,5.13,0,0,1-.13-.66c0-.16,0-.32-.07-.47,0-.31-.08-.61-.1-.93a3.79,3.79,0,0,1,0-.49c0-.23,0-.47,0-.72V27.56c0-1.07,1.24-2.24,2.92-2.24,1.5,0,2.82,1.17,2.82,2.24v23.9a11.87,11.87,0,0,0,5.25,9.64A4.81,4.81,0,0,1,45.53,65.08Z"/><path class="cls-1" d="M66,27.56v23.9c0,.29,0,.57,0,.85l-.06.81a17.25,17.25,0,0,1-9.51,13.46l-.74.35-.76.3h0c-.25.1-.52.18-.77.26s-.67.21-1,.3l-.28.07V65.08a4.82,4.82,0,0,1,2.18-4,11.85,11.85,0,0,0,5.26-9.64V27.56a2.57,2.57,0,0,1,2-2.12,2.74,2.74,0,0,1,.39-.09l.24,0h.53a2.77,2.77,0,0,1,2.58,2A1.64,1.64,0,0,1,66,27.56Z"/></g></g></svg>