<svg id="Layer_1" data-name="Layer 1" xmlns="http://www.w3.org/2000/svg" viewBox="0 0 216.69 31.99"><defs><style>.cls-1{fill:#ef8561;}.cls-2{fill:#16456d;}</style></defs><title>logo</title><path class="cls-1" d="M576.91,1214.1h6.47a1.05,1.05,0,0,1,1,1.08,1.08,1.08,0,0,1-1,1.16h-6.47v16.37c0,.62-.73,1-1.54,1s-1.41-.42-1.41-1v-23a8,8,0,0,1,8.06-7.64h1.14a1.23,1.23,0,1,1,0,2.45h-.77a5.27,5.27,0,0,0-5.48,5Z" transform="translate(-455.62 -1202.05)"/><path class="cls-1" d="M605.35,1221.62v4.53c0,4.11-4,7.89-8.66,7.89s-8.55-3.74-8.55-7.89v-4.53c0-4.16,3.84-7.77,8.55-7.77S605.35,1217.34,605.35,1221.62Zm-3,0a5.66,5.66,0,0,0-5.71-5.28,5.58,5.58,0,0,0-5.61,5.28v4.53a5.67,5.67,0,0,0,11.32,0Z" transform="translate(-455.62 -1202.05)"/><path class="cls-1" d="M628.53,1221.62v4.53c0,4.11-4,7.89-8.65,7.89s-8.56-3.74-8.56-7.89v-4.53c0-4.16,3.85-7.77,8.56-7.77S628.53,1217.34,628.53,1221.62Zm-2.95,0a5.66,5.66,0,0,0-5.7-5.28,5.59,5.59,0,0,0-5.62,5.28v4.53a5.67,5.67,0,0,0,11.32,0Z" transform="translate(-455.62 -1202.05)"/><path class="cls-1" d="M651.58,1203v29.63a1.29,1.29,0,0,1-1.41,1.08,1.32,1.32,0,0,1-1.4-1.08v-1.83a7.34,7.34,0,0,1-6.21,3.2,8.2,8.2,0,0,1-8-7.89v-4.53a8,8,0,0,1,8.1-7.77,6.76,6.76,0,0,1,6,3.15v-14c0-.58.68-1,1.54-1S651.58,1202.46,651.58,1203Zm-14.09,23.11a5.72,5.72,0,0,0,5.62,5.4c3.17,0,5.52-2.87,5.52-4.12v-5.81a5.3,5.3,0,0,0-5.48-5.28,5.66,5.66,0,0,0-5.66,5.28Z" transform="translate(-455.62 -1202.05)"/><path class="cls-1" d="M669.6,1228.8c0-5.52-11.19-2.41-11.19-9.3,0-2.66,2-5.65,7.15-5.65,3,0,6.07,1,6.07,2,0,.46-.49,1.42-1.22,1.42s-2.13-1.17-4.8-1.17c-3.35,0-4.53,1.87-4.53,3.24,0,4.74,11.23,1.75,11.23,9.31,0,3.28-2.67,5.36-7.29,5.36-4.26,0-7.11-1.75-7.11-3,0-.54.45-1.25,1-1.25,1,0,1.9,2,6,2C668.37,1231.75,669.6,1230.38,669.6,1228.8Z" transform="translate(-455.62 -1202.05)"/><path class="cls-1" d="M458.53,1214.3h6.41a1.05,1.05,0,0,1,1,1.09,1.07,1.07,0,0,1-1,1.16h-6.41v16.38c0,.62-.71,1-1.52,1s-1.39-.42-1.39-1v-23a7.91,7.91,0,0,1,8-7.65h1.12a1.23,1.23,0,1,1,0,2.45H464a5.25,5.25,0,0,0-5.42,5Z" transform="translate(-455.62 -1202.05)"/><path class="cls-1" d="M555.72,1221.33c0,3.2-1.93,3.33-3.9,3.33H541.7v1.53c0,3.33,2.87,5.41,6.81,5.41,3.54,0,4.39-1.67,5.37-1.67a1.41,1.41,0,0,1,1.26,1.29c0,1-2.56,2.75-6.72,2.75-5.64,0-9.63-3.16-9.63-7.9v-4.66c0-4.15,3.85-7.65,8.55-7.65C551.78,1213.76,555.72,1216.92,555.72,1221.33Zm-5.06,1.33c1.79,0,2.24-.25,2.24-1.41a5.44,5.44,0,0,0-5.6-5.24,5.37,5.37,0,0,0-5.6,5.07v1.58Z" transform="translate(-455.62 -1202.05)"/><path class="cls-1" d="M564.66,1203.25v29.64c0,.54-.63,1.08-1.48,1.08a1.33,1.33,0,0,1-1.43-1.08v-29.64c0-.59.63-1,1.43-1S564.66,1202.66,564.66,1203.25Z" transform="translate(-455.62 -1202.05)"/><path class="cls-1" d="M532.76,1221.83v11.1c0,.5-.63,1-1.48,1s-1.43-.54-1.43-1v-11.1a5.61,5.61,0,0,0-11.2,0V1233c0,.54-.67,1-1.47,1s-1.44-.46-1.44-1v-11.14c0-4.16,3.9-7.82,8.51-7.82S532.76,1217.71,532.76,1221.83Z" transform="translate(-455.62 -1202.05)"/><path class="cls-1" d="M509.71,1221.83v11.1c0,.5-.62,1-1.47,1s-1.44-.54-1.44-1v-11.1a5.6,5.6,0,0,0-11.19,0V1233c0,.54-.68,1-1.48,1s-1.43-.46-1.43-1v-11.14c0-4.16,3.89-7.82,8.5-7.82S509.71,1217.71,509.71,1221.83Z" transform="translate(-455.62 -1202.05)"/><path class="cls-1" d="M476.32,1232.47v1.3l-.36-.08-.34-.1c-.24-.07-.46-.15-.68-.23l-.33-.14-.3-.13a9.27,9.27,0,0,1-1.51-.93l-.19-.14a1.37,1.37,0,0,0-.18-.16l-.29-.26c-.09-.09-.19-.18-.28-.28l-.27-.28c-.16-.19-.32-.38-.46-.57a7,7,0,0,1-.49-.76c-.06-.09-.1-.17-.15-.26l-.17-.34c-.06-.12-.11-.24-.16-.35-.1-.27-.19-.53-.27-.8,0-.1-.05-.19-.07-.29s-.05-.21-.06-.31a1.7,1.7,0,0,1,0-.22c0-.14,0-.28-.05-.43a1.69,1.69,0,0,1,0-.23c0-.1,0-.22,0-.33v-11.1c0-.5.62-1,1.48-1s1.43.54,1.43,1v11.1a5.4,5.4,0,0,0,2.65,4.47A2.2,2.2,0,0,1,476.32,1232.47Z" transform="translate(-455.62 -1202.05)"/><path class="cls-1" d="M486.67,1215.05v11.1c0,.13,0,.26,0,.39l0,.38a8.06,8.06,0,0,1-4.81,6.25l-.38.16-.38.14h0l-.39.12-.51.14-.15,0v-1.3a2.2,2.2,0,0,1,1.11-1.85,5.39,5.39,0,0,0,2.66-4.47v-11.1c0-.4.43-.84,1-1l.2,0h.39a1.4,1.4,0,0,1,1.31.93S486.67,1215,486.67,1215.05Z" transform="translate(-455.62 -1202.05)"/><path class="cls-2" d="M483.76,1223.93v2.2a5.39,5.39,0,0,1-2.66,4.47,2.2,2.2,0,0,0-1.11,1.85v1.3a9,9,0,0,1-3.67,0v-1.3a2.2,2.2,0,0,0-1.11-1.85,5.4,5.4,0,0,1-2.65-4.47v-2.2h11.2Z" transform="translate(-455.62 -1202.05)"/><path class="cls-1" d="M476.32,1232.45v1.3l-.36-.08-.34-.1a6.8,6.8,0,0,1-.68-.24,3.24,3.24,0,0,1-.33-.13l-.3-.13a9.32,9.32,0,0,1-1.51-.94l-.19-.14-.18-.15-.29-.26c-.09-.09-.19-.18-.28-.28l-.27-.28c-.16-.19-.32-.38-.46-.57a7,7,0,0,1-.49-.76c-.06-.09-.1-.18-.15-.26s-.12-.23-.17-.35a3.73,3.73,0,0,1-.16-.35c-.1-.26-.19-.52-.27-.8,0-.09-.05-.19-.07-.28s-.05-.21-.06-.31a1.7,1.7,0,0,1,0-.22c0-.14,0-.28-.05-.43a1.69,1.69,0,0,1,0-.23c0-.11,0-.22,0-.33V1215c0-.5.62-1,1.48-1s1.43.54,1.43,1v11.1a5.4,5.4,0,0,0,2.65,4.47A2.2,2.2,0,0,1,476.32,1232.45Z" transform="translate(-455.62 -1202.05)"/><path class="cls-1" d="M486.67,1215v11.1c0,.13,0,.26,0,.39l0,.38a8.07,8.07,0,0,1-4.81,6.25l-.38.16-.38.14h0l-.39.12a4.77,4.77,0,0,1-.51.13l-.15,0v-1.3a2.2,2.2,0,0,1,1.11-1.85,5.39,5.39,0,0,0,2.66-4.47V1215c0-.41.43-.84,1-1l.2,0h.39a1.38,1.38,0,0,1,1.31.93S486.67,1215,486.67,1215Z" transform="translate(-455.62 -1202.05)"/></svg>