<svg id="Layer_1" data-name="Layer 1" xmlns="http://www.w3.org/2000/svg" xmlns:xlink="http://www.w3.org/1999/xlink" viewBox="0 0 1001.19 737.71"><defs><style>.cls-1{fill:url(#linear-gradient);}.cls-2{fill:#b9d7d2;}.cls-3{fill:#4a5c59;}.cls-4{fill:#e59e83;}.cls-5{fill:#85a49f;}.cls-6{fill:#95b7b1;}.cls-7{fill:#d3e5e3;}.cls-8{fill:#e5f0ee;}.cls-9{fill:#a3664e;}.cls-10{fill:#e18a6a;}.cls-11{fill:#e9b29e;}.cls-12{fill:#f5ded5;}.cls-13{fill:#ce7e62;}.cls-14{fill:none;stroke:#a3664e;stroke-miterlimit:10;stroke-width:9px;}.cls-15{fill:#7b4c3b;}</style><linearGradient id="linear-gradient" x1="185.52" y1="1528.5" x2="920.84" y2="1103.95" gradientUnits="userSpaceOnUse"><stop offset="0.07" stop-color="#c54561"/><stop offset="0.33" stop-color="#b43e58"/><stop offset="0.85" stop-color="#882d41"/><stop offset="0.97" stop-color="#7c283b"/></linearGradient></defs><title>papers</title><path class="cls-1" d="M1024.7,1425.36c-56.89,63.65-203.18,34.35-294.54,46.51-2.87.39-5.71.78-8.5,1.19q-5.94.86-11.67,1.8l-2.19.35q-8.24,1.39-15.95,3l-2.51.53c-3.21.68-6.36,1.39-9.41,2.14l-1.93.48-2.48.64c-.72.19-1.44.37-2.15.57l-1.1.3-1.83.51-1.36.4c-.65.18-1.28.37-1.92.57l-.14,0c-.66.19-1.32.4-2,.61-1.17.36-2.32.74-3.46,1.12-.63.21-1.24.41-1.85.63s-1.27.44-1.9.67c-2.73,1-5.34,2-7.85,3.08s-5.1,2.06-7.89,3l-1.4.47-2.79.89c-1.33.4-2.67.79-4,1.17l-.85.23q-4.95,1.34-10.35,2.5l-1.34.28c-3.77.79-7.7,1.52-11.76,2.18l-1.85.29c-1.68.27-3.41.52-5.14.77l-3.06.42q-6.45.85-13.27,1.52l-2,.19-2.06.19q-3.61.33-7.31.6l-3,.21-.76,0c-1.26.08-2.53.17-3.8.24s-2.69.16-4,.22c-.58,0-1.16.06-1.75.09-1.16.06-2.33.12-3.5.16l-2.43.11-2.88.1q-3.75.14-7.55.22l-2.27.05-1,0-3.5,0-4.71,0h-2.28c-99.32.32-216.62-19.85-231.32-50.15-.41-.83-.86-1.67-1.35-2.49-.22-.37-.46-.74-.69-1.11a1,1,0,0,1-.08-.11l-.4-.6q-.44-.63-.9-1.26l-.42-.55-.47-.6-.52-.64c-.64-.78-1.33-1.55-2.05-2.32l-.56-.58-.57-.58-.26-.27-.92-.89-.62-.58-.62-.57c-.42-.38-.86-.76-1.3-1.14s-.88-.76-1.35-1.13l-.69-.56c-.23-.19-.46-.38-.7-.56-1-.79-2-1.57-3.11-2.34-.46-.33-.92-.66-1.39-1-.26-.19-.52-.38-.79-.55l-1.54-1c-1.94-1.29-4-2.55-6.1-3.81l-.9-.53q-.9-.54-1.83-1c-.48-.28-1-.55-1.46-.82s-.9-.51-1.37-.76l-.48-.25c-.41-.24-.83-.46-1.26-.68l-.78-.42-1.38-.72c-.77-.41-1.55-.8-2.34-1.19-.57-.3-1.14-.58-1.71-.86q-2.13-1.08-4.35-2.11c-80.44-38.25-228.94-66.42-176-131.45,25.63-31.46,13.55-134.33,103.84-132,10.28.28,20.79.12,31.32-.37,81.89-3.78,165.62-27.62,165.62-27.62s255.68-62.85,316.92-8.68c122.46,108.33,212.67,155.48,275.88,161.32S1096.53,1345,1024.7,1425.36Z" transform="translate(-55.98 -769.05)"/><path class="cls-2" d="M721.66,1473.06c-28.33,4.09-53.07,9.44-71.67,17.41a131.42,131.42,0,0,1-18.24,6.11c-93.4,24.59-311.23,2.07-331.63-40-6.28-12.95-23.22-24.18-45.26-34.65-12.56-6-26.79-11.71-41.66-17.37-16-6.1-32.73-12.11-48.92-18.28L56,922.81l499.54-98.6,57.36,288.59,18.87,62.47Z" transform="translate(-55.98 -769.05)"/><polygon class="cls-3" points="31.23 166.8 50.92 255.06 95.43 246.13 73.17 158.08 31.23 166.8"/><path class="cls-4" d="M326.83,1184.89a144.28,144.28,0,0,0-125.61,215.19q6,2.25,12,4.51c14.87,5.66,29.1,11.39,41.66,17.37,22,10.47,39,21.7,45.26,34.65,2.88,6,9.72,11.5,19.59,16.58q3.54.18,7.12.18a144.24,144.24,0,1,0,0-288.48Zm0,237.88a93.64,93.64,0,1,1,93.64-93.64A93.64,93.64,0,0,1,326.83,1422.77Z" transform="translate(-55.98 -769.05)"/><polygon class="cls-5" points="63.33 309.6 89.18 426.93 187.01 401.88 159.59 287.19 63.33 309.6"/><polygon class="cls-6" points="54.95 273.79 57.46 288.86 123.42 273.79 119.03 259.96 54.95 273.79"/><path class="cls-7" d="M626,789.66l5.75,706.92c-93.4,24.59-311.23,2.07-331.63-40-6.28-12.95-23.22-24.18-45.26-34.65-12.56-6-26.79-11.71-41.66-17.37L96.52,844.29Z" transform="translate(-55.98 -769.05)"/><polygon class="cls-5" points="86.67 110.57 139.3 102.65 186.1 379.16 136.39 389.62 86.67 110.57"/><polygon class="cls-3" points="303.63 371.69 305.34 378.06 139.82 413.34 138.12 406.95 303.63 371.69"/><polygon class="cls-3" points="308.99 395.51 310.7 401.88 145.19 437.16 143.48 430.77 308.99 395.51"/><polygon class="cls-3" points="163.71 531.09 172.28 580.53 213.86 571.96 203.92 524.5 163.71 531.09"/><polygon class="cls-3" points="313.4 418.89 315.11 425.26 149.59 460.54 147.88 454.15 313.4 418.89"/><polygon class="cls-3" points="318.32 444.33 320.03 450.7 155.08 485.87 153.9 479.36 318.32 444.33"/><polygon class="cls-3" points="324.48 472.44 326.19 478.8 160.68 514.09 159.59 507.56 324.48 472.44"/><path class="cls-8" d="M730.16,1471.87c-2.87.39-5.71.78-8.5,1.19q-5.94.86-11.67,1.8l-2.19.35q-8.24,1.39-15.95,3l-2.51.53c-3.21.68-6.36,1.39-9.41,2.14l-1.93.48-2.48.64c-.72.19-1.44.37-2.15.57l-1.1.3-1.83.51-1.36.4-1.92.57-.14,0c-.66.19-1.32.4-2,.61-1.17.36-2.32.74-3.46,1.12l-1.85.63-1.9.67c-2.73,1-5.34,2-7.85,3.08s-5.1,2.06-7.89,3l-1.4.47-2.79.89c-1.33.4-2.67.79-4,1.17l-.85.23q-4.95,1.34-10.35,2.5l-1.34.28c-3.77.79-7.7,1.52-11.76,2.18l-1.85.29c-1.68.27-3.41.52-5.14.77l-3.06.42q-6.45.85-13.27,1.52l-2,.19-2.06.19q-3.61.33-7.31.6l-3,.21-.76,0c-1.26.08-2.53.17-3.8.24s-2.69.16-4,.22c-.58,0-1.16.06-1.75.09-1.16.06-2.33.12-3.5.16l-2.43.11-2.88.1q-3.75.14-7.55.22l-2.27.05-1,0-3.5,0-4.71,0h-2.28c-99.32.32-216.62-19.85-231.32-50.15-.41-.83-.86-1.67-1.35-2.49-.22-.37-.46-.74-.69-1.11a1,1,0,0,1-.08-.11l-.4-.6q-.44-.63-.9-1.26l-.42-.55-.47-.6-.52-.64c-.64-.78-1.33-1.55-2.05-2.32l-.56-.58c-.18-.2-.37-.39-.57-.58l-.26-.27-.92-.89-.62-.58-.62-.57c-.42-.38-.86-.76-1.3-1.14s-.88-.76-1.35-1.13c-.22-.19-.45-.38-.69-.56s-.46-.38-.7-.56c-1-.79-2-1.57-3.11-2.34-.46-.33-.92-.67-1.39-1-.26-.19-.52-.38-.79-.55l-1.54-1c-1.94-1.29-4-2.55-6.1-3.81-.29-.18-.59-.36-.9-.53q-.9-.54-1.83-1c-.48-.28-1-.55-1.46-.82s-.91-.51-1.37-.76l-.48-.25-1.26-.68-.78-.42-1.38-.72c-.77-.41-1.55-.8-2.34-1.19-.57-.3-1.14-.58-1.71-.86q-2.13-1.08-4.35-2.11L167.13,800.07l495.64-31,33.84,352.82Z" transform="translate(-55.98 -769.05)"/><path class="cls-9" d="M366.68,831.86A144.25,144.25,0,1,0,510.92,976.1,144.24,144.24,0,0,0,366.68,831.86Zm0,237.88a93.64,93.64,0,1,1,93.63-93.64A93.63,93.63,0,0,1,366.68,1069.74Z" transform="translate(-55.98 -769.05)"/><path class="cls-10" d="M468.67,874.11a144.24,144.24,0,0,0-204,0c-3.12,3.12-6.06,6.36-8.84,9.68l37.85,33.65a95.7,95.7,0,0,1,6.77-7.55,93.64,93.64,0,0,1,133,131.84l37.85,33.66A144.24,144.24,0,0,0,468.67,874.11Z" transform="translate(-55.98 -769.05)"/><path class="cls-11" d="M222.43,976.05c0,.58,0,1.16,0,1.74l50.82,4.72q-.22-3.21-.23-6.46a93.65,93.65,0,0,1,91-93.6l-1.21-50.59A144.25,144.25,0,0,0,222.43,976.05Z" transform="translate(-55.98 -769.05)"/><polygon class="cls-3" points="465.56 33.08 591.85 25.63 595.09 55.16 468.05 61.73 465.56 33.08"/><polygon class="cls-3" points="597.8 78.89 598.36 85.45 462.85 94.73 462.28 88.15 597.8 78.89"/><polygon class="cls-3" points="600.17 94.73 600.74 101.29 465.22 110.57 464.66 103.99 600.17 94.73"/><polygon class="cls-3" points="602.47 110.57 603.03 117.12 467.52 126.41 466.96 119.83 602.47 110.57"/><polygon class="cls-3" points="604.4 126.41 604.97 132.96 469.45 142.24 468.89 135.67 604.4 126.41"/><polygon class="cls-3" points="606.05 142.24 606.62 148.8 471.1 158.08 470.54 151.5 606.05 142.24"/><polygon class="cls-3" points="606.97 158.88 607.53 165.44 472.02 174.72 471.45 168.14 606.97 158.88"/><polygon class="cls-3" points="608.41 175.52 608.97 182.07 473.45 191.36 472.89 184.78 608.41 175.52"/><polygon class="cls-3" points="618.2 293.18 621.45 321.32 462.05 333.14 459.99 304.55 618.2 293.18"/><polygon class="cls-6" points="621.45 347.69 638 534.26 388.04 556.06 370.41 368.86 621.45 347.69"/><polygon class="cls-3" points="354.69 380.68 355.61 387.21 187.01 401.88 186.1 395.33 354.69 380.68"/><polygon class="cls-3" points="354.69 399.78 355.61 406.31 187.01 420.98 186.1 414.43 354.69 399.78"/><polygon class="cls-3" points="356.62 416.33 357.53 422.86 188.93 437.54 188.02 430.98 356.62 416.33"/><polygon class="cls-3" points="357.61 433.73 358.52 440.26 189.92 454.93 189.01 448.38 357.61 433.73"/><polygon class="cls-3" points="360.17 449.5 361.08 456.03 192.49 470.7 191.57 464.15 360.17 449.5"/><polygon class="cls-3" points="361.84 466.09 362.75 472.62 194.16 487.29 193.25 480.74 361.84 466.09"/><polygon class="cls-3" points="364.16 482.66 365.08 489.19 196.48 503.86 195.57 497.31 364.16 482.66"/><polygon class="cls-10" points="392.67 578.43 408.52 705.48 504.2 696.69 487.5 568.86 392.67 578.43"/><polygon class="cls-11" points="543.84 644.23 549.05 692.75 630.31 684.68 624.13 637.13 543.84 644.23"/><path class="cls-3" d="M707.92,1449l-365.38,33.54c5.21,1.72,10.79,3.37,16.68,4.93l349.29-32.06Z" transform="translate(-55.98 -769.05)"/><path class="cls-3" d="M276.24,1354.93l-6.4.7,8.7,79.35.28.18,1.54,1c.27.17.53.36.79.55.47.31.93.65,1.39,1,1,.75,2,1.51,3,2.27Z" transform="translate(-55.98 -769.05)"/><path class="cls-3" d="M588.73,1487.33,433.86,1501a815.1,815.1,0,0,0,97.58,5.73h2.28l4.71,0,3.5,0,1,0,2.27-.05q3.8-.09,7.55-.22l2.88-.1,2.43-.11c1.17,0,2.34-.1,3.5-.16.59,0,1.17,0,1.75-.09,1.35-.06,2.7-.15,4-.22s2.54-.16,3.8-.24l.76,0,3-.21q3.69-.27,7.31-.6l2.06-.19,2-.19,4.55-.48Z" transform="translate(-55.98 -769.05)"/><path class="cls-9" d="M319.56,1396.43l9.6,81.11a216.86,216.86,0,0,0,22.54,7.79l59.88-5.95-11.75-90.78Z" transform="translate(-55.98 -769.05)"/><polygon class="cls-12" points="748.52 349.14 694.33 410.38 764.87 426.58 748.52 349.14"/><path class="cls-13" d="M820.84,1195.53l-4.06,20.61L767.09,1469q-7.41.27-14.56.73c-7.74.51-15.22,1.21-22.37,2.16l-1.2.17c-2.47.33-4.9.67-7.31,1q-5.94.86-11.65,1.8c-.74.11-1.47.24-2.2.36l-1.83.3c-4.61.8-9.12,1.64-13.49,2.54l57.82-298.63,22.27,5.08Z" transform="translate(-55.98 -769.05)"/><line class="cls-14" x1="705.16" y1="425.59" x2="650" y2="706.47"/><line class="cls-14" x1="726.38" y1="431.13" x2="672.98" y2="702.99"/><polyline class="cls-14" points="696.56 700.66 748.07 438.4 748.57 435.83"/><polygon class="cls-15" points="748.52 349.14 734.11 365.42 752.69 368.89 748.52 349.14"/></svg>