<svg id="Layer_1" data-name="Layer 1" xmlns="http://www.w3.org/2000/svg" xmlns:xlink="http://www.w3.org/1999/xlink" viewBox="0 0 1028.13 712.79"><defs><style>.cls-1{fill:none;}.cls-2{fill:url(#linear-gradient);}.cls-3{fill:#e9edf1;}.cls-4{fill:#0c253b;opacity:0.8;}.cls-5{fill:#475a57;}.cls-6{fill:url(#linear-gradient-2);}.cls-7{fill:#e18a6a;}.cls-8{fill:#85a49f;}.cls-9{fill:#a2c9c2;}.cls-10{fill:#596e6a;}.cls-11{fill:#b2d1cc;}.cls-12{fill:#b9d7d2;}.cls-13{fill:#e5f0ee;opacity:0.3;}.cls-14{fill:#ecf5f3;}.cls-15{fill:#b6d4cf;}.cls-16{fill:#d3e5e3;}.cls-17{clip-path:url(#clip-path);}.cls-18{clip-path:url(#clip-path-2);}</style><linearGradient id="linear-gradient" x1="247.78" y1="1076.84" x2="870.23" y2="1599.14" gradientUnits="userSpaceOnUse"><stop offset="0.07" stop-color="#101f2f"/><stop offset="0.39" stop-color="#162a40"/><stop offset="0.97" stop-color="#244369"/></linearGradient><linearGradient id="linear-gradient-2" x1="331.54" y1="1371.65" x2="333.62" y2="1373.24" gradientUnits="userSpaceOnUse"><stop offset="0.07" stop-color="#5a7590"/><stop offset="0.35" stop-color="#435f7f"/><stop offset="0.76" stop-color="#244369"/></linearGradient><clipPath id="clip-path" transform="translate(-55.87 -839.13)"><path class="cls-1" d="M531.34,1299a92.43,92.43,0,0,1-3,11.33c-18.12,54.47-84.09,86.88-154.71,74.55l-2.16-.39-1-.19-1-.18-.11,0-.11,0q-8.12-1.63-15.88-3.95c-1-.3-2-.62-3.06-1h0c-1-.32-2-.66-3.05-1-1.39-.47-2.77-1-4.14-1.46l-1.32-.5c-1-.38-2-.77-3-1.18-.59-.23-1.16-.46-1.74-.71l-1.71-.7s0,0,0,0l-1.5-.65-1.5-.67-1-.42-1-.44q-2.52-1.17-5-2.41l-1.89-1-1.65-.87c-.68-.36-1.36-.74-2-1.11s-1.2-.66-1.78-1c-.91-.51-1.81-1-2.69-1.57-.57-.33-1.13-.67-1.68-1l0,0-1.89-1.17-1.23-.79c-.51-.33-1-.65-1.52-1s-.81-.53-1.21-.81-.92-.61-1.37-.93l-2-1.41c-1.67-1.19-3.31-2.42-4.92-3.66l-1.15-.91c-.63-.5-1.25-1-1.86-1.5q-1.74-1.43-3.42-2.9c-.61-.53-1.22-1.06-1.82-1.61s-1.18-1.07-1.75-1.61q-3.58-3.32-6.86-6.83c-.44-.48-.89-1-1.33-1.45a1,1,0,0,1-.17-.19c-.47-.51-.93-1-1.37-1.53-.08-.08-.14-.16-.21-.24-.41-.47-.82-.94-1.21-1.41-.64-.74-1.25-1.48-1.86-2.23-.33-.4-.66-.8-1-1.21s-.71-.88-1.06-1.33-.66-.87-1-1.3-.71-1-1.06-1.43-.68-.92-1-1.39c-.62-.86-1.21-1.73-1.8-2.6-.4-.6-.8-1.19-1.18-1.8s-.69-1.06-1-1.59c-.2-.32-.4-.63-.59-1-.59-1-1.16-1.92-1.73-2.88q-2.67-4.62-4.86-9.4l-.51-1.12-.56-1.25c-.36-.83-.71-1.67-1-2.51-.19-.47-.38-.92-.55-1.39l-.27-.69c-.16-.42-.31-.84-.47-1.27-.07-.18-.15-.38-.21-.58-.2-.56-.4-1.12-.59-1.68,0-.09-.06-.18-.09-.27-.2-.58-.4-1.18-.58-1.77l-.08-.23c-.18-.58-.36-1.15-.53-1.72,0-.15-.09-.3-.12-.43-.19-.64-.37-1.28-.54-1.91s-.37-1.4-.55-2.09l-.42-1.75c0-.17-.08-.34-.11-.52-.15-.64-.29-1.29-.42-1.94-.09-.43-.18-.86-.25-1.29s-.15-.75-.21-1.13q-.55-3-.9-6.08a94.52,94.52,0,0,1,1.2-29.54c12.48-62.38,85-100.47,162-85.07S543.82,1236.66,531.34,1299Z"/></clipPath><clipPath id="clip-path-2" transform="translate(-55.87 -839.13)"><path class="cls-1" d="M1043.59,1351.09c-1-1.92-2.06-3.86-3.16-5.81-3.2-5.7-6.78-11.49-10.78-17.29-22.26-32.24-57.7-64.74-113.68-80.58-43.2-12.21-98.47-54.28-154-124.72q-15.65-19.85-31.25-42.69c-42.15-61.89-156.85-82.71-194.47-103.45-52.4-28.88-46.14-41.06-95.37-128.28q-2.49-4.44-5.2-9.14l-264.84,189.3s23.1,86.76,81.42,151.76a235.56,235.56,0,0,0,46.21,40.24c26.65,17.42,50.78,28.46,72.41,37.06l7.09,2.78c8,3.06,15.65,5.85,22.93,8.56,2.45.92,4.87,1.82,7.24,2.73,11.35,4.32,21.78,8.63,31.3,13.84,2.08,1.13,4.11,2.3,6.1,3.54a100.63,100.63,0,0,1,24.38,20.71q2.08,2.44,4.06,5.12a120.4,120.4,0,0,1,12.45,21.14l.87,1.84q1.43,3,2.91,6,7,13.92,15.35,27.32,1.72,2.76,3.52,5.51a312.26,312.26,0,0,0,19.67,26.8q2.07,2.52,4.19,5A281.18,281.18,0,0,0,557.89,1434c1.65,1.5,3.31,3,5,4.4a242,242,0,0,0,31.93,23.29q3,1.85,6.07,3.58A209.46,209.46,0,0,0,637,1481.56c1.25.43,2.49.83,3.74,1.23a192.74,192.74,0,0,0,20.64,5.33c8.84,1.77,17.35,5.72,25.47,11.22l2.08-.76q2.26-.82,4.51-1.68,6.21-2.31,12.4-4.73l3.7-1.45.2-.08,3.69-1.47q5.67-2.26,11.35-4.58l3.78-1.55q7.54-3.11,15.06-6.26l11.25-4.74,1.69-.72,9.5-4,3.72-1.56c2.13-.91,4.27-1.8,6.4-2.69,7-2.92,13.9-5.8,20.78-8.58,1.15-.48,2.3-.94,3.45-1.4,1.6-.64,3.2-1.29,4.8-1.91q6.11-2.43,12.16-4.73l3.15-1.2q3.83-1.44,7.6-2.81l3.57-1.28c.94-.34,1.89-.68,2.84-1,2.82-1,5.62-2,8.42-2.88l2.46-.81,2.46-.79c.5-.16,1-.33,1.5-.48l3.07-1,3.06-.93q1.07-.33,2.13-.63c.81-.25,1.62-.48,2.42-.71l3.29-.93c.88-.25,1.77-.48,2.65-.72,1.23-.33,2.46-.66,3.7-1,.79-.2,1.59-.41,2.39-.6s1.45-.36,2.18-.54q2.48-.6,4.94-1.14l2.35-.52,2.7-.56,2.33-.46,3-.56c.45-.09.9-.16,1.35-.24l1.73-.3,2.13-.34,1.22-.2,1.5-.22,2.2-.3,1.17-.15c1.61-.21,3.21-.39,4.8-.56l1.55-.15,2.08-.19,1.12-.09,2.67-.19,3.2-.17,2.83-.14,1.41-.07,11.82-.85,1.85-.17,1.66-.16,1.79-.18L940,1420l2.83-.32c5-.61,10-1.32,14.78-2.14l2-.35,2.19-.39,2.33-.44c1.31-.26,2.6-.51,3.88-.78l1.79-.37,2.24-.49,1.94-.44,1-.24,2-.47,1.89-.47c.74-.18,1.47-.36,2.21-.56l1.8-.47c.22-.06.44-.13.66-.17l1.89-.53,1.59-.44.15,0,1.7-.49c.77-.22,1.53-.45,2.29-.69,3-.93,6-1.89,8.89-2.9,1.44-.51,2.87-1,4.27-1.54,1.06-.4,2.11-.79,3.14-1.2l1.54-.61,1.53-.62c.68-.27,1.34-.55,2-.83,1-.42,2-.85,3-1.28s2-.86,2.9-1.3c1.92-.88,3.78-1.78,5.62-2.69l1.81-.93,1.79-.93,1.76-.94c.74-.4,1.47-.81,2.19-1.22s1.44-.8,2.14-1.22l0,0c.71-.4,1.41-.82,2.1-1.24s1.39-.84,2.06-1.26c1-.61,1.94-1.22,2.89-1.84l2.37-1.59h0l2.32-1.62,1.38-1,1.42-1c.47-.35.94-.7,1.4-1.06l1.37-1.07c1.35-1.07,2.65-2.15,3.93-3.24A235.41,235.41,0,0,0,1043.59,1351.09ZM300.7,1198.43l25.93-19.9c1.68,1.47,3.39,2.9,5.11,4.31l-25.89,19.86C304.1,1201.31,302.39,1199.89,300.7,1198.43Z"/></clipPath></defs><title>scan</title><path class="cls-2" d="M1065.82,1293.41c-32.71-20.27-49-39.17-61-55.87-24.57-34-31.78-59-125.27-68l-3.15-.3c-64.57-5.86-61.18-39.11-114.39-46.54q-16.26-2.28-31.73-4.53l-9-1.32q-22.41-3.3-43-6.45l-8.94-1.36q-19.27-2.94-36.81-5.62l-9-1.37q-17.48-2.62-33-4.83l-9.06-1.24c-13.47-1.84-25.67-3.34-36.53-4.41q-5-.48-9.61-.85c-13.93-1.1-25.22-1.3-33.66-.35a49.1,49.1,0,0,0-7.72,1.41c-2.25.62-5,1.46-8.07,2.48-16.27,5.38-43.67,16-75.61,28.38L388.58,1131c-7.79,3-15.73,6.07-23.76,9.14h0c-15.12,5.77-30.55,11.58-45.74,17.13-3.53,1.3-7.05,2.57-10.55,3.84q-11.47,4.13-22.55,8h0c-11.75,4.06-23.08,7.82-33.69,11.11-25,7.76-46,13-59.37,13.64,0,0-92,7.5-63.62,56.92s21.37,64.85-29.81,89.54-70.59,92.23,70.59,116.94,137.24-2.38,279.66,62.14c25.9,11.74,53.86,16.16,83.14,15.5h0a300.07,300.07,0,0,0,39.3-3.63c37.29-5.79,76-17.81,114.74-31.9l2.08-.76q2.26-.82,4.51-1.68,6.21-2.31,12.4-4.73l3.7-1.45.2-.08,3.69-1.47q5.67-2.26,11.35-4.58l3.78-1.55q7.54-3.11,15.06-6.26l11.25-4.74,1.69-.72,9.5-4,3.72-1.56,6.4-2.69c7-2.92,13.9-5.8,20.78-8.58,1.15-.48,2.3-.94,3.45-1.4,1.61-.64,3.21-1.29,4.8-1.91q6.11-2.43,12.16-4.73l3.15-1.2q3.83-1.44,7.6-2.81l3.57-1.28,2.84-1c2.82-1,5.62-2,8.42-2.88l2.46-.81c.83-.27,1.64-.54,2.46-.79.5-.16,1-.33,1.5-.48l3.07-1,3.06-.93q1.07-.33,2.13-.63c.81-.25,1.62-.48,2.42-.71l3.29-.93c.88-.25,1.77-.49,2.65-.72,1.23-.33,2.46-.66,3.7-1,.8-.21,1.59-.42,2.39-.6l2.18-.54q2.48-.6,4.94-1.14l2.35-.52,2.7-.56c.78-.16,1.56-.32,2.33-.46l3-.56q.68-.14,1.35-.24c.58-.11,1.15-.21,1.73-.3l2.13-.34,1.22-.2,1.5-.22,2.2-.3,1.17-.15c1.61-.21,3.21-.39,4.8-.56l1.55-.15,2.08-.19,1.12-.09,2.67-.19,3.2-.17,2.83-.14,1.41-.07q6-.33,11.82-.85l1.85-.17,1.66-.16,1.79-.18L940,1420l2.83-.32c5-.61,10-1.32,14.78-2.14l2-.35,2.19-.39,2.33-.44c1.31-.26,2.6-.51,3.88-.78l1.79-.37,2.24-.49,1.94-.44,1-.24,2-.47,1.89-.47c.74-.18,1.47-.36,2.21-.56l1.8-.47c.22-.06.44-.13.66-.17l1.89-.53,1.59-.44.15,0,1.7-.49c.77-.22,1.53-.45,2.29-.69,3-.93,6-1.89,8.89-2.9,1.44-.51,2.87-1,4.27-1.54,1.06-.4,2.11-.79,3.14-1.2l1.54-.61,1.53-.62c.68-.27,1.34-.55,2-.83,1-.42,2-.85,3-1.28s2-.86,2.9-1.3c1.92-.88,3.78-1.77,5.62-2.69l1.81-.93,1.79-.93,1.76-.94c.74-.4,1.47-.81,2.19-1.22s1.44-.8,2.14-1.22l0,0c.71-.4,1.41-.82,2.1-1.24s1.39-.84,2.06-1.26c1-.61,1.94-1.22,2.89-1.84l2.37-1.59h0l2.32-1.62,1.38-1,1.42-1c.47-.35.94-.7,1.4-1.06l1.37-1.07c1.35-1.07,2.65-2.15,3.93-3.24C1089.77,1346.74,1093.14,1310.34,1065.82,1293.41Z" transform="translate(-55.87 -839.13)"/><path class="cls-3" d="M1043.59,1351.09c-1-1.92-2.06-3.86-3.16-5.81-3.2-5.7-6.78-11.49-10.78-17.29-22.26-32.24-57.7-64.74-113.68-80.58-43.2-12.21-98.47-54.28-154-124.72q-15.65-19.85-31.25-42.69c-42.15-61.89-156.85-82.71-194.47-103.45-52.4-28.88-46.14-41.06-95.37-128.28q-2.49-4.44-5.2-9.14l-264.84,189.3s23.1,86.76,81.42,151.76a235.56,235.56,0,0,0,46.21,40.24c26.65,17.42,50.78,28.46,72.41,37.06l7.09,2.78c8,3.06,15.65,5.85,22.93,8.56,2.45.92,4.87,1.82,7.24,2.73,11.35,4.32,21.78,8.63,31.3,13.84,2.08,1.13,4.11,2.3,6.1,3.54a100.63,100.63,0,0,1,24.38,20.71q2.08,2.44,4.06,5.12a120.4,120.4,0,0,1,12.45,21.14l.87,1.84q1.43,3,2.91,6,7,13.92,15.35,27.32,1.72,2.76,3.52,5.51a312.26,312.26,0,0,0,19.67,26.8q2.07,2.52,4.19,5A281.18,281.18,0,0,0,557.89,1434c1.65,1.5,3.31,3,5,4.4a242,242,0,0,0,31.93,23.29q3,1.85,6.07,3.58A209.46,209.46,0,0,0,637,1481.56c1.25.43,2.49.83,3.74,1.23a192.74,192.74,0,0,0,20.64,5.33c8.84,1.77,17.35,5.72,25.47,11.22l2.08-.76q2.26-.82,4.51-1.68,6.21-2.31,12.4-4.73l3.7-1.45.2-.08,3.69-1.47q5.67-2.26,11.35-4.58l3.78-1.55q7.54-3.11,15.06-6.26l11.25-4.74,1.69-.72,9.5-4,3.72-1.56c2.13-.91,4.27-1.8,6.4-2.69,7-2.92,13.9-5.8,20.78-8.58,1.15-.48,2.3-.94,3.45-1.4,1.6-.64,3.2-1.29,4.8-1.91q6.11-2.43,12.16-4.73l3.15-1.2q3.83-1.44,7.6-2.81l3.57-1.28c.94-.34,1.89-.68,2.84-1,2.82-1,5.62-2,8.42-2.88l2.46-.81,2.46-.79c.5-.16,1-.33,1.5-.48l3.07-1,3.06-.93q1.07-.33,2.13-.63c.81-.25,1.62-.48,2.42-.71l3.29-.93c.88-.25,1.77-.48,2.65-.72,1.23-.33,2.46-.66,3.7-1,.79-.2,1.59-.41,2.39-.6s1.45-.36,2.18-.54q2.48-.6,4.94-1.14l2.35-.52,2.7-.56,2.33-.46,3-.56c.45-.09.9-.16,1.35-.24l1.73-.3,2.13-.34,1.22-.2,1.5-.22,2.2-.3,1.17-.15c1.61-.21,3.21-.39,4.8-.56l1.55-.15,2.08-.19,1.12-.09,2.67-.19,3.2-.17,2.83-.14,1.41-.07,28.76-22.07,72.41-55.56q2,2.6,4,5.2l-63.82,49-29.49,22.62,1.85-.17,1.66-.16,1.79-.18L940,1420l2.83-.32c5-.61,10-1.32,14.78-2.14l2-.35,2.19-.39,2.33-.44c1.31-.26,2.6-.51,3.88-.78l1.79-.37,2.24-.49,1.94-.44,1-.24,2-.47,1.89-.47c.74-.18,1.47-.36,2.21-.56l1.8-.47c.22-.06.44-.13.66-.17l1.89-.53,1.59-.44.15,0,1.7-.49c.77-.22,1.53-.45,2.29-.69,3-.93,6-1.89,8.89-2.9,1.44-.51,2.87-1,4.27-1.54,1.06-.4,2.11-.79,3.14-1.2l1.54-.61,1.53-.62c.68-.27,1.34-.55,2-.83,1-.42,2-.85,3-1.28s2-.86,2.9-1.3c1.92-.88,3.78-1.78,5.62-2.69l1.81-.93,1.79-.93,1.76-.94c.74-.4,1.47-.81,2.19-1.22s1.44-.8,2.14-1.22l0,0c.71-.4,1.41-.82,2.1-1.24s1.39-.84,2.06-1.26c1-.61,1.94-1.22,2.89-1.84l2.37-1.59h0l2.32-1.62,1.38-1,1.42-1c.47-.35.94-.7,1.4-1.06l1.37-1.07c1.35-1.07,2.65-2.15,3.93-3.24A235.41,235.41,0,0,0,1043.59,1351.09ZM300.7,1198.43l25.93-19.9c1.68,1.47,3.39,2.9,5.11,4.31l-25.89,19.86C304.1,1201.31,302.39,1199.89,300.7,1198.43Z" transform="translate(-55.87 -839.13)"/><path class="cls-4" d="M266.53,1565.93" transform="translate(-55.87 -839.13)"/><path class="cls-5" d="M534.3,1324.85a101.19,101.19,0,0,0,4.41-9.71C537.79,1317.39,536.33,1320.74,534.3,1324.85Z" transform="translate(-55.87 -839.13)"/><path class="cls-6" d="M333.1,1372.69c-.59-.25-1.17-.51-1.75-.79l1,.42,1.5.67Z" transform="translate(-55.87 -839.13)"/><path class="cls-7" d="M207.5,1039.71s36.82,90.45,60.27,106L487.7,983.17s-41.45-44.07-61.47-97.83Z" transform="translate(-55.87 -839.13)"/><path class="cls-7" d="M1025.72,1349.22l-93.31,71.58h-.1l-2.81.24-1.8.13-2.27.17c-1.6.11-3.21.21-4.84.3L1021.76,1344Q1023.8,1346.62,1025.72,1349.22Z" transform="translate(-55.87 -839.13)"/><path class="cls-7" d="M536.87,1019.38l-144.69,111-78.48,60.22c-1.72-1.41-3.43-2.85-5.11-4.32l62-47.52,159.31-122.22Q533.18,1017.95,536.87,1019.38Z" transform="translate(-55.87 -839.13)"/><path class="cls-7" d="M570.53,1031.42,339.37,1208.76q-2.91-1.8-5.86-3.72l229.65-176.19Z" transform="translate(-55.87 -839.13)"/><path class="cls-7" d="M601.07,1042.39l-235.94,181c-2.1-1.09-4.21-2.2-6.34-3.36l235.05-180.33h0C596.24,1040.58,598.65,1041.48,601.07,1042.39Z" transform="translate(-55.87 -839.13)"/><path class="cls-7" d="M635.45,1056.65l-237.22,182h0c-2.27-.94-4.57-1.9-6.9-2.91L628.7,1053.61C631,1054.6,633.2,1055.62,635.45,1056.65Z" transform="translate(-55.87 -839.13)"/><path class="cls-7" d="M693.35,1092.74l-226,173.38c-2.17-1.07-4.38-2.12-6.64-3.13l227.57-174.58C690,1089.82,691.7,1091.27,693.35,1092.74Z" transform="translate(-55.87 -839.13)"/><path class="cls-7" d="M717.68,1121.72,499.63,1289q-2.29-2.41-4.72-4.6L714,1116.35Q715.82,1119.07,717.68,1121.72Z" transform="translate(-55.87 -839.13)"/><path class="cls-7" d="M737.05,1148.28l-218.7,167.78q-1.51-3-3.1-5.83l217.86-167.15C734.42,1144.83,735.73,1146.57,737.05,1148.28Z" transform="translate(-55.87 -839.13)"/><path class="cls-7" d="M760.62,1177.5,536.11,1349.75c-1.13-1.89-2.24-3.77-3.32-5.67L756.4,1172.52C757.81,1174.2,759.21,1175.86,760.62,1177.5Z" transform="translate(-55.87 -839.13)"/><path class="cls-7" d="M787.58,1206.94,558.72,1382.51q-2-2.57-4-5.17L783,1202.22C784.53,1203.82,786.05,1205.39,787.58,1206.94Z" transform="translate(-55.87 -839.13)"/><path class="cls-7" d="M818.89,1235.92,587.18,1413.7q-2.4-2.27-4.74-4.59L813.81,1231.6Q816.36,1233.82,818.89,1235.92Z" transform="translate(-55.87 -839.13)"/><path class="cls-7" d="M895.61,1281.21l-235,180.32c-2.33-.93-4.63-1.9-6.92-2.91L888.17,1278.7Q891.94,1280.1,895.61,1281.21Z" transform="translate(-55.87 -839.13)"/><path class="cls-7" d="M942.37,1299.87,711,1477.41a64.88,64.88,0,0,0-6.84-3L936,1296.55C938.16,1297.63,940.29,1298.74,942.37,1299.87Z" transform="translate(-55.87 -839.13)"/><path class="cls-7" d="M665.85,1072.67,428.73,1250.38l-7.29-2.7,238.32-178.59C661.82,1070.25,663.85,1071.45,665.85,1072.67Z" transform="translate(-55.87 -839.13)"/><path class="cls-7" d="M975.78,1324.22,818.57,1444.83h0q-11.31,4.28-22.79,9.26l175-134.26C972.46,1321.29,974.14,1322.74,975.78,1324.22Z" transform="translate(-55.87 -839.13)"/><path class="cls-7" d="M856.47,1263.11l-233.29,179c-1.92-1.25-3.84-2.53-5.73-3.84l233.12-178.85Q853.54,1261.33,856.47,1263.11Z" transform="translate(-55.87 -839.13)"/><line class="cls-1" x1="919.91" y1="548.4" x2="919.91" y2="548.4"/><line class="cls-1" x1="891.95" y1="561.62" x2="891.95" y2="561.62"/><path class="cls-8" d="M534.3,1324.85c-7.72,15.58-23.81,42.15-51.12,62l-1.74-2.87s-11.61.08-19.27,5.26c-5.43,3.67-9.27,9.32-8.93,11.64a8.81,8.81,0,0,0,.94,2.09c-22.93,9.25-51.18,13.12-85.59,6.48-127.82-24.67-127.79-136.4-127.78-138,7.55,55.5,58.27,105.19,127.45,119C439.66,1404.73,507.59,1376.17,534.3,1324.85Z" transform="translate(-55.87 -839.13)"/><path class="cls-9" d="M483.18,1386.86a134.68,134.68,0,0,1-29,16.12,8.81,8.81,0,0,1-.94-2.09c-.34-2.32,3.5-8,8.93-11.64,7.66-5.18,19.27-5.26,19.27-5.26Z" transform="translate(-55.87 -839.13)"/><path class="cls-10" d="M417.72,1143.08c-83.46-16.69-162.2,25.16-175.86,93.46a104.65,104.65,0,0,0-1.05,34.86v0c7.55,55.5,58.27,105.19,127.45,119,71.4,14.28,139.33-14.28,166-65.6,1.9-3.84,3.3-7,4.23-9.28.07-.14.12-.29.18-.43s.12-.29.18-.44.07-.18.11-.27c.16-.4.3-.77.42-1.08l.07-.17c.21-.53.34-.9.4-1.08l.06-.16a104.83,104.83,0,0,0,4.18-15C557.78,1228.67,501.19,1159.77,417.72,1143.08Zm119.21,152.1a98.46,98.46,0,0,1-4.52,15.74c-20.63,54.5-87.48,86.57-158.78,74l-2.16-.39c-.65-.11-1.3-.24-2-.37l-.11,0-.11,0q-8.12-1.63-15.88-3.95c-1-.3-2-.62-3.06-1h0c-1-.32-2-.66-3.05-1-1.39-.47-2.77-1-4.14-1.46l-1.32-.5c-1-.38-2-.77-3-1.18-.59-.23-1.16-.46-1.74-.71l-1.71-.7c-.75-.31-1.5-.64-2.24-1l-.91-.41c-1.09-.46-2.16-1-3.23-1.47-.79-.36-1.57-.74-2.35-1.12q-2.14-1-4.23-2.14c-1.38-.72-2.76-1.48-4.12-2.23-.69-.38-1.37-.76-2-1.16-2.88-1.67-5.7-3.41-8.43-5.22q-2.46-1.64-4.84-3.34a2.22,2.22,0,0,0-.27-.19l-1.84-1.35c-.61-.44-1.21-.9-1.81-1.36q-1.8-1.37-3.54-2.79c-1.74-1.42-3.45-2.86-5.11-4.34-1.11-1-2.2-2-3.27-3-.54-.52-1.08-1-1.6-1.53s-1.05-1-1.57-1.55l-1.53-1.55-1.51-1.59q-1.5-1.59-2.93-3.21t-2.81-3.28c-.47-.55-.91-1.1-1.35-1.66s-.84-1-1.24-1.56c-.05-.06-.09-.12-.14-.17q-.65-.82-1.26-1.65c-.43-.56-.86-1.13-1.26-1.71s-.84-1.15-1.24-1.73-.81-1.16-1.21-1.74-.78-1.15-1.16-1.73-.86-1.32-1.28-2c-.28-.42-.55-.85-.8-1.29-.5-.8-1-1.61-1.46-2.43-.24-.4-.48-.81-.7-1.22-.11-.17-.2-.34-.3-.52l-.69-1.23-.31-.58-.83-1.57c-.29-.55-.57-1.1-.85-1.65-.39-.77-.77-1.55-1.13-2.33-.26-.53-.51-1-.74-1.58s-.52-1.15-.78-1.73c-.77-1.76-1.5-3.55-2.17-5.33-.26-.65-.49-1.31-.73-2s-.47-1.31-.69-2c-.13-.4-.27-.82-.4-1.24s-.25-.74-.36-1.11c-.38-1.19-.74-2.4-1.06-3.61-.19-.67-.36-1.33-.53-2-.12-.44-.22-.88-.33-1.32-.71-2.92-1.29-5.85-1.74-8.81a100.14,100.14,0,0,1,.77-34.8c13-65,87.95-104.87,167.42-89S549.94,1230.15,536.93,1295.18Z" transform="translate(-55.87 -839.13)"/><path class="cls-11" d="M371.47,1384.53c-.65-.11-1.3-.24-2-.37l-.11,0,1.08.21Z" transform="translate(-55.87 -839.13)"/><path class="cls-12" d="M536.93,1295.18a98.46,98.46,0,0,1-4.52,15.74c-20.63,54.5-87.48,86.57-158.78,74,70.62,12.33,136.59-20.08,154.71-74.55a92.43,92.43,0,0,0,3-11.33c12.48-62.38-39.84-125.45-116.86-140.84s-149.56,22.69-162,85.07a94.52,94.52,0,0,0-1.2,29.54q.34,3,.9,6.08c.06.38.13.76.21,1.13s.16.86.25,1.29c.13.65.27,1.3.42,1.94,0,.18.07.35.11.52.13.58.28,1.16.42,1.75s.35,1.39.55,2.09.35,1.27.54,1.91c0,.13.08.28.12.43.17.57.35,1.14.53,1.72l.08.23c.18.59.38,1.19.58,1.77,0,.09.05.18.09.27.19.56.39,1.12.59,1.68.06.2.14.4.21.58.15.43.31.85.47,1.27l.27.69c.17.47.36.92.55,1.39.33.84.68,1.68,1,2.51l.56,1.25.51,1.12q2.19,4.77,4.86,9.4c.57,1,1.14,1.92,1.73,2.88.19.32.39.63.59,1,.33.53.67,1.07,1,1.59s.77,1.2,1.18,1.8c.59.87,1.18,1.74,1.8,2.6.33.47.67.94,1,1.39s.7,1,1.06,1.43.66.86,1,1.3.71.89,1.06,1.33.64.81,1,1.21c.61.75,1.22,1.49,1.86,2.23.39.47.8.94,1.21,1.41.07.08.13.16.21.24.44.51.9,1,1.37,1.53a1,1,0,0,0,.17.19c.44.49.89,1,1.33,1.45q3.28,3.51,6.86,6.83c.57.54,1.15,1.08,1.75,1.61s1.21,1.08,1.82,1.61q1.68,1.47,3.42,2.9c.61.51,1.23,1,1.86,1.5l1.15.91c1.61,1.24,3.25,2.47,4.92,3.66.66.48,1.33.94,2,1.41.45.32.91.63,1.37.93s.8.55,1.21.81,1,.67,1.52,1l1.23.79,1.89,1.17,0,0c.55.34,1.11.68,1.68,1,.88.54,1.78,1.06,2.69,1.57.58.34,1.18.67,1.78,1s1.35.75,2,1.11l1.65.87,1.89,1q2.46,1.25,5,2.41l1,.44q-2.4-1.07-4.74-2.21-2.13-1.05-4.23-2.14c-1.38-.72-2.76-1.48-4.12-2.23l-2-1.16c-2.88-1.67-5.7-3.41-8.43-5.22q-2.46-1.64-4.84-3.34a2.22,2.22,0,0,0-.27-.19l-1.84-1.35L299,1352.7q-1.78-1.38-3.54-2.79c-1.74-1.42-3.45-2.86-5.11-4.34q-1.67-1.48-3.27-3c-.54-.52-1.08-1-1.6-1.53-1.05-1-2.09-2.06-3.1-3.1l-1.51-1.59q-1.48-1.59-2.93-3.21t-2.81-3.28c-.46-.55-.91-1.11-1.35-1.66s-.84-1-1.24-1.56c-.05-.06-.09-.12-.14-.17l-1.26-1.65c-.42-.57-.85-1.14-1.26-1.71s-.84-1.15-1.24-1.73-.81-1.16-1.21-1.74-.77-1.15-1.16-1.73-.86-1.32-1.28-2c-.27-.42-.54-.85-.8-1.29-.5-.8-1-1.61-1.46-2.43l-.7-1.22c-.11-.17-.2-.34-.3-.52l-.69-1.23-.31-.58-.83-1.57c-.29-.55-.57-1.1-.85-1.65-.39-.77-.77-1.55-1.13-2.33-.26-.53-.51-1-.74-1.58s-.52-1.15-.78-1.73c-.77-1.76-1.5-3.55-2.17-5.33-.26-.65-.49-1.31-.73-2s-.47-1.31-.69-2c-.13-.4-.27-.82-.4-1.24s-.25-.74-.36-1.11c-.38-1.19-.74-2.4-1.06-3.61-.19-.67-.36-1.33-.53-2-.12-.44-.22-.88-.33-1.32-.71-2.92-1.29-5.85-1.74-8.81a100.14,100.14,0,0,1,.77-34.8c13-65,87.95-104.87,167.42-89S549.94,1230.15,536.93,1295.18Z" transform="translate(-55.87 -839.13)"/><path class="cls-13" d="M531.34,1299a92.43,92.43,0,0,1-3,11.33c-18.12,54.47-84.09,86.88-154.71,74.55l-2.16-.39-1-.19-1-.18-.11,0-.11,0q-8.12-1.63-15.88-3.95c-1-.3-2-.62-3.06-1h0c-1-.32-2-.66-3.05-1-1.39-.47-2.77-1-4.14-1.46l-1.32-.5c-1-.38-2-.77-3-1.18-.59-.23-1.16-.46-1.74-.71l-1.71-.7s0,0,0,0l-1.5-.65-1.5-.67-1-.42-1-.44q-2.52-1.17-5-2.41l-1.89-1-1.65-.87c-.68-.36-1.36-.74-2-1.11s-1.2-.66-1.78-1c-.91-.51-1.81-1-2.69-1.57-.57-.33-1.13-.67-1.68-1l0,0-1.89-1.17-1.23-.79c-.51-.33-1-.65-1.52-1s-.81-.53-1.21-.81-.92-.61-1.37-.93l-2-1.41c-1.67-1.19-3.31-2.42-4.92-3.66l-1.15-.91c-.63-.5-1.25-1-1.86-1.5q-1.74-1.43-3.42-2.9c-.61-.53-1.22-1.06-1.82-1.61s-1.18-1.07-1.75-1.61q-3.58-3.32-6.86-6.83c-.44-.48-.89-1-1.33-1.45a1,1,0,0,1-.17-.19c-.47-.51-.93-1-1.37-1.53-.08-.08-.14-.16-.21-.24-.41-.47-.82-.94-1.21-1.41-.64-.74-1.25-1.48-1.86-2.23-.33-.4-.66-.8-1-1.21s-.71-.88-1.06-1.33-.66-.87-1-1.3-.71-1-1.06-1.43-.68-.92-1-1.39c-.62-.86-1.21-1.73-1.8-2.6-.4-.6-.8-1.19-1.18-1.8s-.69-1.06-1-1.59c-.2-.32-.4-.63-.59-1-.59-1-1.16-1.92-1.73-2.88q-2.67-4.62-4.86-9.4l-.51-1.12-.56-1.25c-.36-.83-.71-1.67-1-2.51-.19-.47-.38-.92-.55-1.39l-.27-.69c-.16-.42-.31-.84-.47-1.27-.07-.18-.15-.38-.21-.58-.2-.56-.4-1.12-.59-1.68,0-.09-.06-.18-.09-.27-.2-.58-.4-1.18-.58-1.77l-.08-.23c-.18-.58-.36-1.15-.53-1.72,0-.15-.09-.3-.12-.43-.19-.64-.37-1.28-.54-1.91s-.37-1.4-.55-2.09l-.42-1.75c0-.17-.08-.34-.11-.52-.15-.64-.29-1.29-.42-1.94-.09-.43-.18-.86-.25-1.29s-.15-.75-.21-1.13q-.55-3-.9-6.08a94.52,94.52,0,0,1,1.2-29.54c12.48-62.38,85-100.47,162-85.07S543.82,1236.66,531.34,1299Z" transform="translate(-55.87 -839.13)"/><path class="cls-14" d="M492.94,1403c-17.63,2.31-27.5,17.07-27.5,17.07l-.39-.56c-1.68-2.4-8.36-12-10.87-16.52a8.81,8.81,0,0,1-.94-2.09c-.34-2.32,3.5-8,8.93-11.64,7.66-5.18,19.27-5.26,19.27-5.26l1.74,2.87,9.29,15.36h0Z" transform="translate(-55.87 -839.13)"/><path class="cls-15" d="M468.62,1429.47l7.36,1.47s10.76-11.49,21.78-13.78l1.88-7-20.42,3.49Z" transform="translate(-55.87 -839.13)"/><path class="cls-16" d="M463.6,1422.61l5,6.86s13.89-17.54,31-19.3c-5.69-8.14-6.12-8.16-6.12-8.16S469.78,1406.18,463.6,1422.61Z" transform="translate(-55.87 -839.13)"/><polygon class="cls-14" points="420.52 603.39 452.06 585.45 447.5 582.79 429.55 588.05 421.04 596.84 420.52 603.39"/><path class="cls-16" d="M476.74,1428.91c-1.75,1.41-4.91,6.17.28,8.36,10.77-8.28,18.34-12.58,26.35-15.35-3.38-7.14-7.39-5-11.21-3.31C486.69,1421.06,480.68,1425.73,476.74,1428.91Z" transform="translate(-55.87 -839.13)"/><path class="cls-9" d="M572.15,1531.24a300.07,300.07,0,0,1-39.3,3.63h0l-56.46-92.36,31.54-17.93S540.53,1478.39,572.15,1531.24Z" transform="translate(-55.87 -839.13)"/><g class="cls-17"><path class="cls-3" d="M928.62,1403.67q-1.51-2.89-3.16-5.82c-3.19-5.69-6.77-11.49-10.78-17.29C892.42,1348.33,857,1315.83,801,1300c-43.2-12.22-98.46-54.29-154-124.73q-15.64-19.85-31.24-42.69c-42.16-61.89-156.86-82.71-194.47-103.45-52.4-28.88-46.15-41.06-95.38-128.28q-2.49-4.44-5.2-9.14L55.87,1081s23.11,86.76,81.42,151.77A235.89,235.89,0,0,0,183.5,1273c26.66,17.41,50.78,28.45,72.41,37,2.4,1,4.76,1.88,7.1,2.78,8,3.07,15.64,5.86,22.92,8.56,2.46.92,4.87,1.82,7.25,2.73,11.35,4.32,21.77,8.64,31.29,13.84q3.12,1.69,6.1,3.54A100.72,100.72,0,0,1,355,1362.23c1.38,1.63,2.74,3.33,4.06,5.11a120.14,120.14,0,0,1,12.44,21.14c.29.61.58,1.23.88,1.84q1.41,3,2.91,6c4.63,9.28,9.75,18.42,15.34,27.32,1.15,1.85,2.32,3.68,3.52,5.51a310.82,310.82,0,0,0,19.68,26.8c1.37,1.69,2.78,3.35,4.19,5a282.44,282.44,0,0,0,24.95,25.65c1.64,1.49,3.31,3,5,4.39a242.93,242.93,0,0,0,31.93,23.3c2,1.22,4,2.41,6.07,3.57a210.51,210.51,0,0,0,36.15,16.29c1.25.42,2.5.83,3.75,1.22a192.13,192.13,0,0,0,20.64,5.33c8.83,1.77,17.35,5.72,25.47,11.23l2.07-.76c1.51-.56,3-1.11,4.52-1.68,4.13-1.54,8.27-3.13,12.4-4.74l3.69-1.45.2-.08,3.69-1.46q5.68-2.26,11.35-4.59l3.78-1.55q7.54-3.1,15.06-6.26l11.25-4.74,1.7-.72,9.49-4,3.72-1.57,6.4-2.69c7-2.92,13.9-5.8,20.78-8.58,1.15-.47,2.3-.94,3.45-1.39q2.4-1,4.8-1.92,6.11-2.43,12.16-4.73c1-.41,2.1-.81,3.16-1.2q3.81-1.43,7.6-2.81l3.56-1.28,2.84-1q4.23-1.48,8.43-2.88l2.46-.81,2.45-.79,1.5-.48,3.08-1,3.06-.93,2.13-.63,2.42-.71,3.28-.93,2.66-.72c1.23-.33,2.46-.66,3.69-1l2.39-.6,2.19-.54c1.64-.4,3.29-.77,4.93-1.14.78-.18,1.57-.35,2.36-.51l2.7-.57,2.32-.45c1-.2,2-.39,3-.57l1.35-.24,1.73-.29c.71-.13,1.42-.24,2.13-.35l1.23-.19,1.5-.22,2.19-.3,1.17-.16c1.61-.21,3.21-.39,4.81-.55l1.54-.16,2.09-.19,1.12-.09c.88-.07,1.77-.13,2.66-.18l3.2-.18,2.84-.13,1.4-.08,28.77-22.07,72.4-55.56q2.06,2.6,4,5.2l-63.82,49-29.49,22.62,1.84-.17L821,1473c.61-.06,1.2-.11,1.8-.18l2.28-.24,2.83-.33q7.59-.9,14.78-2.14l2-.35c.73-.12,1.47-.25,2.19-.39l2.34-.44,3.87-.77,1.79-.38,2.25-.49c.64-.14,1.29-.28,1.93-.44.35-.07.7-.15,1-.24l2-.47,1.88-.46c.74-.18,1.48-.37,2.21-.57l1.8-.47.67-.17,1.88-.52,1.6-.45.14,0,1.7-.5c.78-.22,1.53-.45,2.29-.69,3-.93,6-1.89,8.89-2.9,1.45-.5,2.87-1,4.28-1.54,1.06-.4,2.1-.79,3.14-1.2l1.54-.61,1.52-.61,2-.83,3-1.28,2.89-1.31q2.88-1.32,5.62-2.69c.61-.3,1.21-.61,1.81-.92l1.79-.93c.6-.31,1.17-.63,1.76-1l2.2-1.21q1.08-.6,2.13-1.23h0c.71-.41,1.41-.83,2.09-1.24s1.39-.84,2.07-1.27c1-.61,1.94-1.22,2.88-1.84s1.59-1,2.38-1.59h0l2.32-1.61,1.39-1,1.42-1,1.39-1.06,1.37-1.07c1.35-1.07,2.66-2.14,3.93-3.24A234.24,234.24,0,0,0,928.62,1403.67ZM185.73,1251l25.94-19.9q2.52,2.2,5.1,4.32l-25.89,19.86C189.14,1253.88,187.43,1252.46,185.73,1251Z" transform="translate(-55.87 -839.13)"/></g><g class="cls-18"><path class="cls-3" d="M1003.45,1417.31a242,242,0,0,0-11.68-26.18c-1-2-2.1-4-3.22-6-3.26-5.86-11.31-5.08-15.39-11-22.7-33.18-59.61-61.25-116.69-77.55-44-12.58-95.21-68-151.83-140.54C694,1142.4,677,1121.77,663.7,1108.28c-53.72-54.67-130.41-57.69-168.76-79-53.43-29.73-21.11,1.45-33.26-3.45-3.22-1.3-3.47-6.18-5.31-9.41l-59.7,53.72s-40.42-39.28,19,27.63a241.67,241.67,0,0,0,47.12,41.42c27.17,17.92,51.77,29.29,73.82,38.14q3.68,1.47,7.24,2.86c8.15,3.16,16,6,23.37,8.82q3.76,1.41,7.39,2.8c11.57,4.45,22.2,8.89,31.9,14.25,2.12,1.17,4.19,2.37,6.22,3.64A103.22,103.22,0,0,1,637.63,1231q2.11,2.52,4.14,5.26A124.46,124.46,0,0,1,654.46,1258c.29.63.59,1.27.89,1.9q1.44,3.08,3,6.15,7.08,14.34,15.64,28.13,1.75,2.83,3.59,5.66a319.57,319.57,0,0,0,20.06,27.59c1.4,1.74,2.83,3.45,4.27,5.16a288.5,288.5,0,0,0,25.44,26.4c1.68,1.53,3.37,3,5.09,4.52a245.72,245.72,0,0,0,32.55,24q3.07,1.89,6.19,3.68A213,213,0,0,0,808,1407.94c1.27.44,2.55.86,3.82,1.26a192.76,192.76,0,0,0,21,5.49c9,1.83,17.69,5.89,26,11.56l2.12-.79c1.53-.57,6.3,15.64,7.83,15,4.21-1.59-16.64,7-15.36,6.45q7.7-3.21,15.36-6.45m-403.7-324-19.29,13.06c1.72,1.51,3.45,3,5.21,4.44l19.33-13.1C468.56,1119.46,466.82,1118,465.09,1116.5Z" transform="translate(-55.87 -839.13)"/></g><g class="cls-17"><path class="cls-7" d="M280.39,1278.7s10.79.35,27.82,8.1C472.6,1141.51,494.07,1126,494.07,1126l-33.36-7.18Z" transform="translate(-55.87 -839.13)"/><path class="cls-7" d="M382.17,1357.62A40.35,40.35,0,0,1,394,1379.36l174.15-148.57-11.21-20.93Z" transform="translate(-55.87 -839.13)"/><path class="cls-7" d="M341.94,1309s5.66,2.94,16.85,15.85l184.86-152.33-22.84-22.38Z" transform="translate(-55.87 -839.13)"/><polygon class="cls-7" points="349.21 562.88 514.65 427.63 511.07 478.75 393.15 562.89 349.21 562.88"/><polyline class="cls-7" points="185.44 435.6 195.37 433.68 360.23 281.22 301.51 301.03 186.65 412.52"/></g><path class="cls-9" d="M572.15,1531.24a300.07,300.07,0,0,1-39.3,3.63l-56.46-92.36,31.54-17.93S540.53,1478.39,572.15,1531.24Z" transform="translate(-55.87 -839.13)"/></svg>