<svg id="Layer_1" data-name="Layer 1" xmlns="http://www.w3.org/2000/svg" xmlns:xlink="http://www.w3.org/1999/xlink" viewBox="0 0 1067.9 611.57"><defs><style>.cls-1,.cls-5,.cls-63,.cls-9{fill:none;}.cls-2{fill:url(#linear-gradient);}.cls-3{clip-path:url(#clip-path);}.cls-27,.cls-28,.cls-29,.cls-30,.cls-31,.cls-32,.cls-33,.cls-34,.cls-35,.cls-36,.cls-37,.cls-38,.cls-39,.cls-4,.cls-40,.cls-41,.cls-42,.cls-43,.cls-44,.cls-45,.cls-46,.cls-47,.cls-48,.cls-49,.cls-5,.cls-50,.cls-51,.cls-52,.cls-53,.cls-54,.cls-55,.cls-56,.cls-57,.cls-58{stroke:#f5dae3;stroke-width:6px;}.cls-27,.cls-28,.cls-29,.cls-30,.cls-31,.cls-32,.cls-33,.cls-34,.cls-35,.cls-36,.cls-37,.cls-38,.cls-39,.cls-4,.cls-40,.cls-41,.cls-42,.cls-43,.cls-44,.cls-45,.cls-46,.cls-47,.cls-48,.cls-49,.cls-5,.cls-50,.cls-51,.cls-52,.cls-53,.cls-54,.cls-55,.cls-56,.cls-57,.cls-58,.cls-63,.cls-9{stroke-miterlimit:10;}.cls-4{fill:url(#linear-gradient-2);}.cls-6{fill:#c12d54;}.cls-7{fill:#9a2342;}.cls-8{fill:#f8eaef;}.cls-9{stroke:#f198b3;stroke-width:9px;}.cls-10{fill:#f7d0dd;}.cls-11{fill:#99c9c2;}.cls-12{fill:#455c59;}.cls-13{fill:#536f6a;}.cls-14{fill:#c6e2dd;}.cls-15{fill:#ef8562;}.cls-16{fill:#f8ddd4;}.cls-17{fill:#19436c;}.cls-18{fill:#a8bac7;}.cls-19{fill:#537593;}.cls-20{fill:#7da59f;}.cls-21{fill:#2a3735;}.cls-22{fill:#96c6be;}.cls-23{clip-path:url(#clip-path-2);}.cls-24{fill:#834837;}.cls-25{fill:#e184a3;}.cls-26{fill:#ae6249;}.cls-27{fill:url(#linear-gradient-3);}.cls-28{fill:url(#linear-gradient-4);}.cls-29{fill:url(#linear-gradient-5);}.cls-30{fill:url(#linear-gradient-6);}.cls-31{fill:url(#linear-gradient-7);}.cls-32{fill:url(#linear-gradient-8);}.cls-33{fill:url(#linear-gradient-9);}.cls-34{fill:url(#linear-gradient-10);}.cls-35{fill:url(#linear-gradient-11);}.cls-36{fill:url(#linear-gradient-12);}.cls-37{fill:url(#linear-gradient-13);}.cls-38{fill:url(#linear-gradient-14);}.cls-39{fill:url(#linear-gradient-15);}.cls-40{fill:url(#linear-gradient-16);}.cls-41{fill:url(#linear-gradient-17);}.cls-42{fill:url(#linear-gradient-18);}.cls-43{fill:url(#linear-gradient-19);}.cls-44{fill:url(#linear-gradient-20);}.cls-45{fill:url(#linear-gradient-21);}.cls-46{fill:url(#linear-gradient-22);}.cls-47{fill:url(#linear-gradient-23);}.cls-48{fill:url(#linear-gradient-24);}.cls-49{fill:url(#linear-gradient-25);}.cls-50{fill:url(#linear-gradient-26);}.cls-51{fill:url(#linear-gradient-27);}.cls-52{fill:url(#linear-gradient-28);}.cls-53{fill:url(#linear-gradient-29);}.cls-54{fill:url(#linear-gradient-30);}.cls-55{fill:url(#linear-gradient-31);}.cls-56{fill:url(#linear-gradient-32);}.cls-57{fill:url(#linear-gradient-33);}.cls-58{fill:url(#linear-gradient-34);}.cls-59{fill:#f19b7e;}.cls-60{fill:#f198b3;}.cls-61{fill:#fdf3f1;}.cls-62{fill:#bccbd6;}.cls-63{stroke:#c12d54;stroke-width:5px;}</style><linearGradient id="linear-gradient" x1="80.48" y1="1274.74" x2="1114" y2="1274.74" gradientUnits="userSpaceOnUse"><stop offset="0.07" stop-color="#ae6249"/><stop offset="0.34" stop-color="#bf6b50"/><stop offset="0.89" stop-color="#eb8361"/><stop offset="0.93" stop-color="#ef8562"/></linearGradient><clipPath id="clip-path" transform="translate(-46.1 -891.66)"><path class="cls-1" d="M79.29,906c-112.67,36.13,48.2,315.69,137.68,375.52s109.2,135.38,195.58,198.16c72.71,52.85,169.28-9.33,232.47,18.23s155.8-61.6,216.67-57.68c87.9,5.66,168.38-15.88,228.4-54.33,42.78-27.41-1.11-280.07-116-281.84-159.64-2.47-105.64-68.21-208.88-104.08C696.75,976.21,379.91,809.64,79.29,906Z"/></clipPath><linearGradient id="linear-gradient-2" x1="438.08" y1="236.79" x2="472.94" y2="236.79" gradientUnits="userSpaceOnUse"><stop offset="0.07" stop-color="#596e6a"/><stop offset="0.32" stop-color="#677f7b"/><stop offset="0.81" stop-color="#8baba6"/><stop offset="0.93" stop-color="#95b7b1"/></linearGradient><clipPath id="clip-path-2" transform="translate(-46.1 -891.66)"><ellipse class="cls-1" cx="533.09" cy="1346.47" rx="89.05" ry="108.09" transform="matrix(0.22, -0.98, 0.98, 0.22, -896.69, 1576.46)"/></clipPath><linearGradient id="linear-gradient-3" x1="161.84" y1="380.87" x2="279.61" y2="380.87" xlink:href="#linear-gradient-2"/><linearGradient id="linear-gradient-4" x1="185.11" y1="384.12" x2="298.06" y2="384.12" xlink:href="#linear-gradient-2"/><linearGradient id="linear-gradient-5" x1="206.19" y1="386.61" x2="318.28" y2="386.61" xlink:href="#linear-gradient-2"/><linearGradient id="linear-gradient-6" x1="230.28" y1="387.92" x2="333.42" y2="387.92" xlink:href="#linear-gradient-2"/><linearGradient id="linear-gradient-7" x1="254.26" y1="388.56" x2="351.27" y2="388.56" xlink:href="#linear-gradient-2"/><linearGradient id="linear-gradient-8" x1="271.9" y1="391.48" x2="366.44" y2="391.48" xlink:href="#linear-gradient-2"/><linearGradient id="linear-gradient-9" x1="295.95" y1="394.63" x2="385.23" y2="394.63" xlink:href="#linear-gradient-2"/><linearGradient id="linear-gradient-10" x1="322" y1="396.55" x2="400.84" y2="396.55" xlink:href="#linear-gradient-2"/><linearGradient id="linear-gradient-11" x1="344.68" y1="398.66" x2="419.97" y2="398.66" xlink:href="#linear-gradient-2"/><linearGradient id="linear-gradient-12" x1="362.27" y1="399.39" x2="437.23" y2="399.39" xlink:href="#linear-gradient-2"/><linearGradient id="linear-gradient-13" x1="390.91" y1="403.05" x2="453.79" y2="403.05" xlink:href="#linear-gradient-2"/><linearGradient id="linear-gradient-14" x1="415.06" y1="405.34" x2="470.58" y2="405.34" xlink:href="#linear-gradient-2"/><linearGradient id="linear-gradient-15" x1="434.86" y1="407.13" x2="486.83" y2="407.13" xlink:href="#linear-gradient-2"/><linearGradient id="linear-gradient-16" x1="454.22" y1="408.81" x2="504.36" y2="408.81" xlink:href="#linear-gradient-2"/><linearGradient id="linear-gradient-17" x1="479.29" y1="411.1" x2="522.02" y2="411.1" xlink:href="#linear-gradient-2"/><linearGradient id="linear-gradient-18" x1="504.36" y1="411.69" x2="539" y2="411.69" xlink:href="#linear-gradient-2"/><linearGradient id="linear-gradient-19" x1="525.67" y1="413.49" x2="554.91" y2="413.49" xlink:href="#linear-gradient-2"/><linearGradient id="linear-gradient-20" x1="544.39" y1="416.65" x2="572.59" y2="416.65" xlink:href="#linear-gradient-2"/><linearGradient id="linear-gradient-21" x1="568.21" y1="418.54" x2="591.06" y2="418.54" xlink:href="#linear-gradient-2"/><linearGradient id="linear-gradient-22" x1="592.93" y1="418.18" x2="607.11" y2="418.18" xlink:href="#linear-gradient-2"/><linearGradient id="linear-gradient-23" x1="617.05" y1="421.98" x2="624.82" y2="421.98" xlink:href="#linear-gradient-2"/><linearGradient id="linear-gradient-24" x1="640.66" y1="422.4" x2="642.9" y2="422.4" xlink:href="#linear-gradient-2"/><linearGradient id="linear-gradient-25" x1="659.2" y1="416.99" x2="659.2" y2="416.99" xlink:href="#linear-gradient-2"/><linearGradient id="linear-gradient-26" x1="673.81" y1="416.99" x2="674.65" y2="416.99" xlink:href="#linear-gradient-2"/><linearGradient id="linear-gradient-27" x1="690.77" y1="409.84" x2="690.77" y2="409.84" xlink:href="#linear-gradient-2"/><linearGradient id="linear-gradient-28" x1="791.35" y1="373.39" x2="794.57" y2="373.39" xlink:href="#linear-gradient-2"/><linearGradient id="linear-gradient-29" x1="778.29" y1="380.05" x2="782.38" y2="380.05" xlink:href="#linear-gradient-2"/><linearGradient id="linear-gradient-30" x1="764.62" y1="385.06" x2="765.98" y2="385.06" xlink:href="#linear-gradient-2"/><linearGradient id="linear-gradient-31" x1="751.42" y1="389.64" x2="751.88" y2="389.64" xlink:href="#linear-gradient-2"/><linearGradient id="linear-gradient-32" x1="736.65" y1="394.16" x2="739.31" y2="394.16" xlink:href="#linear-gradient-2"/><linearGradient id="linear-gradient-33" x1="722.25" y1="399.07" x2="722.97" y2="399.07" xlink:href="#linear-gradient-2"/><linearGradient id="linear-gradient-34" x1="706.9" y1="404.98" x2="708.82" y2="404.98" xlink:href="#linear-gradient-2"/></defs><title>shop</title><path class="cls-2" d="M127.82,1075.25c-112.67,36.12-.33,146.46,89.15,206.29s109.2,135.38,195.58,198.16c72.71,52.85,169.28-9.33,232.47,18.23s155.8-61.6,216.67-57.68c87.9,5.66,250.83-36.88,252.29-87.67s-96.89-116.85-132.06-124c-141-28.5-239.65-17.36-342.89-53.23C570.56,1151.6,428.44,978.86,127.82,1075.25Z" transform="translate(-46.1 -891.66)"/><g class="cls-3"><line class="cls-4" x1="438.08" y1="153.28" x2="472.94" y2="320.3"/><line class="cls-5" x1="460.84" y1="158.92" x2="484.02" y2="297.17"/><line class="cls-5" x1="487" y1="164.81" x2="500.65" y2="304.85"/><line class="cls-5" x1="507.81" y1="170.98" x2="517.69" y2="311.74"/><line class="cls-5" x1="529.67" y1="176.72" x2="532.5" y2="311.74"/><line class="cls-5" x1="551.14" y1="181.06" x2="551.14" y2="302.75"/><line class="cls-5" x1="570.86" y1="187.67" x2="569.44" y2="298.09"/><line class="cls-5" x1="592.71" y1="192.14" x2="592.71" y2="262.05"/><line class="cls-5" x1="611.98" y1="198.74" x2="612.82" y2="251.76"/><line class="cls-5" x1="633.67" y1="200.84" x2="632.41" y2="241.36"/><line class="cls-5" x1="646.31" y1="209.78" x2="646.31" y2="236.57"/><path class="cls-6" d="M557.25,1415.77l14.52-5.38s-100.69-292.88-120.63-393.93c-7.91-40.07-10.75-115.71-106-124.3a139.81,139.81,0,0,0-38.85,2.2c-11.24,2.28-6.09,10.25-6.09,10.25L372,914.08l46.18,57.6Z" transform="translate(-46.1 -891.66)"/><path class="cls-7" d="M500.37,1434.35s7.29-38.94,0-69.45S404.25,974.31,400.08,967s-24.78-45.24-55.58-50.79-34.34-5.56-34.34-5.56-25.13-11.8,0-14.59,69.8-1.15,98.9,37.79,24.9,64,30.09,86.25c21.85,93.65,115.44,391.46,115.44,391.46Z" transform="translate(-46.1 -891.66)"/><path class="cls-8" d="M57.82,953.49l248.27-51.58s23.91-4.75,19.8,7.69L80.66,964.73Z" transform="translate(-46.1 -891.66)"/><line class="cls-9" x1="308.37" y1="152.11" x2="418.71" y2="523.98"/><line class="cls-9" x1="273.72" y1="158.58" x2="382.87" y2="531.53"/><line class="cls-9" x1="237.39" y1="165.8" x2="345.21" y2="545.93"/><line class="cls-9" x1="200.48" y1="173.54" x2="313.33" y2="554.73"/><path class="cls-10" d="M306.09,1469.87l14.52-5.38S219.92,1171.61,200,1070.57c-7.91-40.07-10.74-115.72-106-124.31a139.71,139.71,0,0,0-38.85,2.21C43.85,950.75,49,958.71,49,958.71l71.86,9.47,46.18,57.6Z" transform="translate(-46.1 -891.66)"/><path class="cls-6" d="M251.87,1492.64s7.29-38.94,0-69.45-96.12-390.59-100.29-397.88S126.79,980.07,96,974.52s-40.2-5-40.2-5-23.1-13.23,2-16,73.64-.27,102.74,38.67,24.9,64,30.09,86.25c21.85,93.65,115.44,391.46,115.44,391.46Z" transform="translate(-46.1 -891.66)"/><path class="cls-9" d="M306.52,1462.67S181,1057.29,181,1049.69s205.62-45.23,218.06-45.92,16.6,4.84,17.29,9.68,100.36,387,100.36,387Z" transform="translate(-46.1 -891.66)"/><line class="cls-9" x1="175.72" y1="300.31" x2="401.24" y2="242.38"/><line class="cls-9" x1="210.65" y1="418.2" x2="433.36" y2="365.94"/><line class="cls-5" x1="607.11" y1="552.62" x2="780.33" y2="492.34"/><line class="cls-5" x1="579.63" y1="554.23" x2="752.81" y2="493.81"/><line class="cls-5" x1="554.91" y1="555.63" x2="722.34" y2="495.43"/><line class="cls-5" x1="528.61" y1="557.08" x2="693.72" y2="496.95"/><line class="cls-5" x1="507.74" y1="557.08" x2="669.9" y2="497.11"/><line class="cls-5" x1="479.05" y1="559.56" x2="641.21" y2="499.59"/><line class="cls-5" x1="454.51" y1="560.05" x2="616.67" y2="500.08"/><line class="cls-5" x1="424.32" y1="562.7" x2="586.48" y2="502.73"/><line class="cls-5" x1="403.38" y1="562.32" x2="565.54" y2="502.36"/><line class="cls-5" x1="374.35" y1="564.9" x2="540.29" y2="503.54"/><line class="cls-5" x1="345.01" y1="566.72" x2="517.27" y2="503.54"/><line class="cls-5" x1="311.79" y1="567.34" x2="493.45" y2="505.63"/><path class="cls-9" d="M831.89,1383.71c2.56,0,5.56,3,5.56,5.61S705.59,1439.1,689,1441.72c-15.65,2.47-345.35,19.09-382.48,21a.41.41,0,0,1-.13-.8l210.29-61.37Z" transform="translate(-46.1 -891.66)"/><path class="cls-9" d="M190.65,1078.41a.43.43,0,0,0,0,.82c27.66,6.62,466.25,111.43,496.07,107.17,28-4,134.75-36.08,154.21-42,.9-.27.6-3.41-.3-3.67-36.18-10.3-380-106.19-411.26-107.24C397.3,1032.46,211.39,1071.51,190.65,1078.41Z" transform="translate(-46.1 -891.66)"/><path class="cls-9" d="M221.82,1192s448,46.28,464.56,45.41,157.25-36.68,157.65-41-8.33-9.81-8.33-9.81" transform="translate(-46.1 -891.66)"/><path class="cls-9" d="M834.83,1270.56s10.57,3.5,9.21,6.11S715.19,1326.45,696,1326.45s-439.23-16.59-439.23-16.59" transform="translate(-46.1 -891.66)"/><polygon class="cls-11" points="339.26 123.17 361.42 262.05 464.86 300.96 464.86 242.31 446.65 114.15 339.26 123.17"/><path class="cls-12" d="M374.39,983l11,31.82,107.39-9s3.73-30.74,0-31.39-10.48,7.27-15.51,7.35-14.46-13.31-16.69-10.63-.27,9.39-7.28,9.38-15.84,1.35-17.89,0-2.05,1.9-7,2.5-13.4-7.42-17.63-4.74-1.11,8.47-6.46,8.47-16.55-7.28-17.64-5S375.69,977.05,374.39,983Z" transform="translate(-46.1 -891.66)"/><polygon class="cls-13" points="417.02 126.95 438.49 124.81 456.67 235.18 435.34 237.31 417.02 126.95"/><polygon class="cls-12" points="352.86 133.91 360.9 133.91 375.34 243.06 363.05 219.07 352.86 133.91"/><polygon class="cls-14" points="380.41 175.41 417.02 172.76 440.82 298.09 388.11 294.83 380.41 175.41"/><path class="cls-15" d="M237.13,974.41s-74.39,2.5-50.32,31.4,286.8,256.72,286.8,256.72l93.16,14.31S323.39,984.44,237.13,974.41Z" transform="translate(-46.1 -891.66)"/><path class="cls-16" d="M222.46,1015.76s23.24,26.08,42.14,26.08,42.15-12.34,42.15-12.34-18-23.32-38.68-23.69S222.46,1015.76,222.46,1015.76Z" transform="translate(-46.1 -891.66)"/><path class="cls-16" d="M283.39,1066.42s23.24,26.08,42.15,26.08,42.14-12.33,42.14-12.33-18-23.33-38.68-23.69S283.39,1066.42,283.39,1066.42Z" transform="translate(-46.1 -891.66)"/><path class="cls-16" d="M337.49,1121.62s23.24,26.09,42.15,26.09,42.15-12.34,42.15-12.34-18-23.32-38.69-23.69S337.49,1121.62,337.49,1121.62Z" transform="translate(-46.1 -891.66)"/><path class="cls-16" d="M399.57,1174.93s19.23,21.58,34.87,21.58,34.86-10.21,34.86-10.21-14.88-19.29-32-19.6S399.57,1174.93,399.57,1174.93Z" transform="translate(-46.1 -891.66)"/><path class="cls-16" d="M448.83,1218.09s19.23,21.58,34.87,21.58,34.86-10.21,34.86-10.21-14.88-19.29-32-19.6S448.83,1218.09,448.83,1218.09Z" transform="translate(-46.1 -891.66)"/><path class="cls-16" d="M484.17,1260.48s19.23,21.58,34.87,21.58,34.86-10.21,34.86-10.21-14.87-19.29-32-19.6S484.17,1260.48,484.17,1260.48Z" transform="translate(-46.1 -891.66)"/><polygon class="cls-17" points="220.72 338.04 305.71 556.96 347.7 555.14 262.24 345.73 220.72 338.04"/><polygon class="cls-18" points="262.24 345.73 412.21 284.64 493.45 505.63 347.7 555.14 262.24 345.73"/><polygon class="cls-16" points="324.81 454.89 331.54 473.05 443.27 427.27 434.44 409.84 324.81 454.89"/><polygon class="cls-16" points="339.26 491.57 347.7 510.72 454.27 469.23 441.83 453.27 339.26 491.57"/><polygon class="cls-7" points="291.3 356.2 319.17 434.79 438.09 384.12 412.21 302.75 291.3 356.2"/><polygon class="cls-19" points="220.72 338.04 262.24 345.73 412.21 284.64 382.32 277.75 220.72 338.04"/><ellipse class="cls-20" cx="533.09" cy="1346.47" rx="89.05" ry="108.09" transform="matrix(0.22, -0.98, 0.98, 0.22, -942.78, 684.8)"/><polygon class="cls-20" points="760.16 148.08 780.33 154.59 765.3 325.07 744.07 320.3 760.16 148.08"/><polygon class="cls-13" points="773.22 159.8 795.42 164.8 769.69 355.87 762.2 284.64 773.22 159.8"/><polygon class="cls-21" points="744.07 159.8 765.3 159.8 762.87 290.95 751.65 245.65 744.07 159.8"/><polygon class="cls-13" points="731.47 173.91 749.7 173.91 751.65 245.65 741.56 245.65 731.47 173.91"/><polygon class="cls-22" points="784.98 192.14 797.95 192.14 772.63 356.2 758.52 335.03 784.98 192.14"/><g class="cls-23"><path class="cls-21" d="M458,1319c.22,14.19,9.26,26.71,22.06,32.53a64.46,64.46,0,0,0,20.48,5.61c5.36.46,14-.8,16.91,5.17,1.32,2.65,1.22,5.83,2.63,8.52a11.9,11.9,0,0,0,7.52,6.17c3.16.83,6.39.07,9.42-.91s4.77-2,6.94.56c4.25,5,6.4,10.38,13,13s13.76.77,20.41,2.77c4.24,1.28,4.15,3.56,5.2,7.43a13.71,13.71,0,0,0,6.83,9c4.28,2.25,9.41,3.31,14,4.78l15.14,4.86c7.37,2.36,10.52-9.22,3.19-11.58-8-2.57-16-5.1-24-7.71-1.89-.61-2.78-.69-3.54-2.53-.53-1.28-.51-2.86-.91-4.19a15.83,15.83,0,0,0-5.23-7.88c-5.08-4.12-11.69-4.8-18-5-2.88-.08-6.31.1-9-1.17s-4-3.83-5.5-6.11c-3.26-4.82-7.26-9.23-13.52-9.4-3.09-.09-5.9.93-8.8,1.84-.75.23-2,.85-2.47.55-.66-.44-.84-3.23-1-4a19.58,19.58,0,0,0-11-13.25c-6.23-2.91-12.32-2.1-18.89-3-14-1.86-29.55-10.32-29.8-26.08-.13-7.71-12.13-7.73-12,0Z" transform="translate(-46.1 -891.66)"/><path class="cls-21" d="M454.57,1325.65c2.59,6.71,2.91,13.57,3.26,20.67.31,6.56,1.34,13.42,6.37,18.14,4.84,4.54,11.93,4.23,16.89,8.26,4,3.27,5.83,9.08,7.82,13.67,2.41,5.59,5.16,10.49,11.59,11.84,3,.64,6,.2,9-.22,2.36-.33,5.5-1.21,7.6.26,3.86,2.69,4.46,10.12,6.77,14.08a51.42,51.42,0,0,0,10.31,12c9.28,8.33,20.25,15.52,32,19.89,7.24,2.71,10.37-8.88,3.19-11.57a84.15,84.15,0,0,1-31.67-21.75c-4.42-4.93-5.27-10.91-8.47-16.51-3.84-6.73-10.29-9.53-17.86-8.68-2.19.25-7.1,1.93-9.12.56-2.29-1.56-3.53-7.28-4.62-9.76-2.64-6-6-11.54-11.71-15-3.25-2-6.86-2.65-10.33-4.06-4.47-1.83-5.33-5-5.68-9.54-.68-8.66-.58-17.2-3.77-25.45-2.75-7.12-14.36-4-11.57,3.19Z" transform="translate(-46.1 -891.66)"/><path class="cls-21" d="M458.67,1316.85c-5.89,3.64-12.12,6.86-17.31,11.52-4.59,4.12-5.93,8.63-8,14.16-.45,1.19-1,2.33-1.51,3.5-.23.49-.48,1-.74,1.44.66-.72.58-.71-.25,0a17,17,0,0,0-3.67,6.74c-1,4,.41,12.42-3,15.16-6,4.85,2.52,13.29,8.48,8.49,4.61-3.72,5-10,5.44-15.47.17-2.11.13-4.56,1.22-6.44.95-1.64,2.42-3,3.28-4.8,2-4.4,2.81-10,6.31-13.47,4.52-4.43,10.49-7.22,15.82-10.51,6.56-4.06.54-14.44-6.06-10.36Z" transform="translate(-46.1 -891.66)"/><path class="cls-21" d="M464.71,1315.71a156.58,156.58,0,0,0-22.3-.07c-5.28.38-14.28,3.44-18.86,0-6.16-4.65-12.15,5.76-6.06,10.36,6.25,4.73,14.07,2.67,21.22,2a155.67,155.67,0,0,1,26-.24c7.7.56,7.67-11.44,0-12Z" transform="translate(-46.1 -891.66)"/><path class="cls-21" d="M463.34,1320.68c-.29-4.08-1.8-7.25-3.4-10.94-1.48-3.41-1.43-7-3.37-10.3a11.34,11.34,0,0,0-3.62-3.92c-1.33-.86-3.72-1.14-4.8-2.15-1.93-1.81-.41-6,0-8.48,1.37-7.55-10.2-10.79-11.57-3.19s-3.14,17.22,5,21.83c1.45.82,3.5,1,4.82,2-1.1-.82.11.22.24.85s.23,1.29.36,1.93c.86,4.18,4,8.19,4.34,12.38.55,7.66,12.56,7.72,12,0Z" transform="translate(-46.1 -891.66)"/><path class="cls-21" d="M465.17,1319a85.75,85.75,0,0,1,3.25-14.23c1.09-3.38,2.6-9.9,5.5-12.14,1.58-1.21,4.6-1.07,6.51-1.39s4.06-.74,6.06-1.24a54.16,54.16,0,0,0,12.19-4.52,36,36,0,0,0,9.54-7.27c1.3-1.41,2.45-3,3.88-4.31,1.84-1.67,3.91-2,6.22-2.68,9-2.58,15.45-8.71,21.62-15.42,5.22-5.68-3.25-14.19-8.49-8.49-3.22,3.5-6.49,7.24-10.54,9.8-3.9,2.46-8.49,2.75-12.54,4.83s-6.49,5.71-9.67,8.86a28.63,28.63,0,0,1-11.68,6.59c-8.19,2.59-18.92,1.37-23.94,9.57-5.2,8.51-8.06,19.07-9.48,28.85-1.1,7.55,10.46,10.81,11.57,3.19Z" transform="translate(-46.1 -891.66)"/><path class="cls-21" d="M451.94,1318.29c.37,3.75.86,7.68.43,11.44-.42,3.59-1.95,6.11-3.66,9.19a29.86,29.86,0,0,0-3.78,19c1,6.89,4.58,11.69,8.26,17.34,2,3,3,5.33,2.14,9-.81,3.32-2.32,6.41-2.92,9.79-1.69,9.52,4.41,15.94,10.4,22.5,5.38,5.9,11.38,12.72,18.35,16.82,6.66,3.93,12.71-6.44,6-10.36-5.19-3.06-11-9.57-15.53-14.53a70.65,70.65,0,0,1-6.78-8.27c-1.11-1.65-1.21-1-.88-3.06.52-3.09,1.84-5.94,2.68-8.94a21.33,21.33,0,0,0-1.95-17c-2.94-5.2-7.45-9.33-8.1-15.57-.73-7.09,3.94-11.71,6.18-18s1.74-12.91,1.11-19.31c-.76-7.61-12.76-7.69-12,0Z" transform="translate(-46.1 -891.66)"/><path class="cls-21" d="M468.89,1319.58c.7-1.23,5.46-2.1,6.93-3.45a14.73,14.73,0,0,0,3.74-6.9,6.84,6.84,0,0,1,.7-1.62c-.15.93-1,1.07-2.5.42,0,.07,2.45.84,2.46.84a14.58,14.58,0,0,0,8.86-.41c3.2-1.19,5.77-3.42,8.33-5.61,1.7-1.46,3.66-3.63,6-3.68,2.58-.06,5.45,2,7.74,3a20.18,20.18,0,0,0,9.45,2.16,14.62,14.62,0,0,0,9.4-4.49c2.27-2.24,3.85-5.39,7.05-6.42,7-2.26,13.75,3.51,19.3,6.76,7,4.07,13,1.29,16.89-5.07,1.89-3.09,3.61-3.52,7.12-4,5.12-.72,10.31-1.13,15.45-1.7,7.6-.83,7.68-12.84,0-12-8.26.91-19.25.28-26.64,4.62a15.11,15.11,0,0,0-4.27,3.89c-.8,1-1.63,3.53-2.65,4.23l.78.07a23.15,23.15,0,0,1-2.43-1.6,54.57,54.57,0,0,0-5.15-3.2c-6.92-3.62-15.28-5.88-22.88-3.1a20.73,20.73,0,0,0-8.23,5.82c-2.53,2.8-3.45,5.09-7.4,3.56-6.26-2.42-11.64-6-18.58-3.68-3.28,1.11-5.95,3.33-8.55,5.53-1.89,1.61-3.79,3.94-6.44,3.75-2.48-.18-4.26-1.57-7-.82a11.22,11.22,0,0,0-7,6c-.75,1.46-1.11,3.1-1.82,4.57-.45,1.1-.42,1.17.08.2l-1.53.49a11.71,11.71,0,0,0-7.64,5.78c-3.83,6.72,6.53,12.77,10.36,6Z" transform="translate(-46.1 -891.66)"/><path class="cls-21" d="M461.21,1322.6c9.21,10.57,23.33,12.52,36.51,10.67,5.59-.79,12-2.41,15.67,2.91,3.48,5.1,7.62,10.18,14.58,8.81,5.22-1,8.13-5.21,11.4-9,1.47-1.69,2.76-3.55,5.19-3.24,3.72.46,6.75,4.7,9.2,7.11,5.06,5,11.93,9.53,18.88,5.14,2.89-1.83,5.3-4.59,7.78-6.92,1.49-1.4,2.94-3,4.54-4.26,1.38-1.11,1-1.53,2.61.39,2.24,2.63,3.28,6.06,5.75,8.61a14,14,0,0,0,9.15,4.29c3.43.21,6.67-.87,9.82-2.09,2.72-1,5.45-2.65,8.33-1.49,7.16,2.88,10.28-8.72,3.19-11.57-5.79-2.33-11.06.27-16.5,2.17-2.23.78-4,1.72-5.85-.14-2.06-2.11-3.05-5.4-5-7.71-4.23-5.09-11-7.35-16.89-3.53-2.84,1.85-5.21,4.54-7.66,6.85l-3.89,3.66c-2,1.88-2.65,1-4.62-.74-5.08-4.6-9.31-10-16.39-11.47-6.29-1.3-11.67,1.39-15.79,6-1.46,1.65-2.83,4.26-4.69,5.45-.22.14-1,.7-.7.71,0,0-1.46-2.15-1.77-2.6-3.49-5.19-7.44-8.89-13.86-9.85-7.16-1.08-14.08,1.25-21.21,1.26-7.42,0-14.37-2.27-19.32-8-5.08-5.84-13.54,2.68-8.49,8.48Z" transform="translate(-46.1 -891.66)"/></g><polygon class="cls-24" points="615.94 273.12 765.3 218.36 778.74 476.27 648.9 530.07 615.94 273.12"/><path class="cls-6" d="M445.85,1169.4s28.88-44.15,43.07-50.35,79.18-18.46,101.92-17.61S689.59,1117,689.59,1117s-89.45,174.55-93.74,166.38-28.5,1.51-59,.32-63.44-11.15-70.11-17.86-34.46-35.94-27.67-66.2Z" transform="translate(-46.1 -891.66)"/><ellipse class="cls-8" cx="495.73" cy="308.01" rx="96.98" ry="80.62"/><ellipse class="cls-25" cx="495.73" cy="308.01" rx="88.56" ry="73.62"/><path class="cls-6" d="M537.26,1189.75s-18.46,8.5-7.18,13.65,19.8,4.52,20.38,0S544.67,1185.19,537.26,1189.75Z" transform="translate(-46.1 -891.66)"/><polygon class="cls-26" points="521.68 251.76 615.94 273.12 648.9 530.07 571.07 525.53 521.68 251.76"/><line class="cls-27" x1="161.84" y1="191.69" x2="279.61" y2="570.05"/><line class="cls-28" x1="185.11" y1="197.22" x2="298.06" y2="571.02"/><line class="cls-29" x1="206.19" y1="202.2" x2="318.28" y2="571.02"/><line class="cls-30" x1="230.28" y1="207.87" x2="333.42" y2="567.97"/><line class="cls-31" x1="254.26" y1="208.75" x2="351.27" y2="568.36"/><line class="cls-32" x1="366.44" y1="565.33" x2="271.9" y2="217.62"/><line class="cls-33" x1="295.95" y1="223.22" x2="385.23" y2="566.05"/><line class="cls-34" x1="322" y1="229.25" x2="400.84" y2="563.84"/><line class="cls-35" x1="344.68" y1="234.48" x2="419.97" y2="562.85"/><line class="cls-36" x1="362.27" y1="238.51" x2="437.23" y2="560.26"/><line class="cls-37" x1="390.91" y1="245.03" x2="453.79" y2="561.08"/><line class="cls-38" x1="415.06" y1="250.49" x2="470.58" y2="560.19"/><line class="cls-39" x1="434.86" y1="254.93" x2="486.83" y2="559.33"/><line class="cls-40" x1="454.22" y1="259.24" x2="504.36" y2="558.39"/><line class="cls-41" x1="479.29" y1="264.76" x2="522.02" y2="557.43"/><line class="cls-42" x1="504.36" y1="266.88" x2="539" y2="556.51"/><line class="cls-43" x1="525.67" y1="271.35" x2="554.91" y2="555.63"/><line class="cls-44" x1="544.39" y1="278.66" x2="572.59" y2="554.64"/><line class="cls-45" x1="568.21" y1="283.5" x2="591.06" y2="553.57"/><line class="cls-46" x1="592.93" y1="283.73" x2="607.11" y2="552.62"/><line class="cls-47" x1="617.05" y1="292.46" x2="624.82" y2="551.5"/><line class="cls-48" x1="640.66" y1="294.74" x2="642.9" y2="550.06"/><line class="cls-49" x1="659.2" y1="290.95" x2="659.2" y2="543.02"/><line class="cls-50" x1="673.81" y1="290.95" x2="674.65" y2="543.02"/><line class="cls-51" x1="690.77" y1="284.64" x2="690.77" y2="535.04"/><line class="cls-52" x1="794.57" y1="249.12" x2="791.35" y2="497.66"/><line class="cls-53" x1="782.38" y1="256.54" x2="778.29" y2="503.56"/><line class="cls-54" x1="764.62" y1="261.81" x2="765.98" y2="508.3"/><line class="cls-55" x1="751.88" y1="265.56" x2="751.42" y2="513.72"/><line class="cls-56" x1="739.31" y1="269.21" x2="736.65" y2="519.1"/><line class="cls-57" x1="722.97" y1="273.9" x2="722.25" y2="524.25"/><line class="cls-58" x1="706.9" y1="278.42" x2="708.82" y2="531.53"/><polygon class="cls-59" points="521.68 251.76 615.94 273.12 765.3 218.36 697.34 198.74 521.68 251.76"/><path class="cls-9" d="M221.82,1192s448,46.28,464.56,45.41,157.25-36.68,157.65-41-8.33-9.81-8.33-9.81" transform="translate(-46.1 -891.66)"/><path class="cls-9" d="M834.83,1270.56s10.57,3.5,9.21,6.11S715.19,1326.45,696,1326.45s-439.23-16.59-439.23-16.59" transform="translate(-46.1 -891.66)"/><path class="cls-60" d="M833,1143.14c-31.06,9.33-121.47,36.14-146.72,39.75-21.38,3-272.88-54.46-447.86-95.94l-49.57-4.69a4,4,0,0,0,1,.42c46.74,11.19,449.89,107.37,495,107.37a17.5,17.5,0,0,0,2.4-.14c28.09-4,133.83-35.75,154.74-42.08a4.31,4.31,0,0,0,3-3.56Z" transform="translate(-46.1 -891.66)"/><path class="cls-60" d="M841,1386.89l-2.23-.89c-1.4-.56-5.37,1.9-24.53,9.34-37.51,14.27-112.94,40.85-125.76,42.87-11.44,1.81-194.77,11.37-304.45,17-18.72,1.3-77.58,3.94-77.65,3.94v0c-1.67.31-1.87.53-2.39,1.07l2.75,6h0c37.52-1.89,367-18.5,382.85-21,9.12-1.44,49.38-15.1,81.08-26.36,18-6.38,34.75-12.53,47.22-17.3,6.57-2.51,11.71-4.56,15.29-6.08,5.55-2.36,7.85-3.33,7.85-6.16Z" transform="translate(-46.1 -891.66)"/><path class="cls-61" d="M833.78,1251.38" transform="translate(-46.1 -891.66)"/><polygon class="cls-61" points="768.79 285.43 798.86 594.61 1010.62 543.02 974.25 260.69 768.79 285.43"/><polygon class="cls-17" points="781.03 298.09 785.99 345.73 971.73 320.3 966.74 274.17 781.03 298.09"/><polygon class="cls-17" points="788.18 367.74 789.17 374.61 947.05 351.53 946.2 344.84 788.18 367.74"/><polygon class="cls-17" points="791.35 388.06 792.34 394.93 950.22 371.85 949.37 365.17 791.35 388.06"/><polygon class="cls-17" points="794.9 409.14 795.89 416.01 953.76 392.94 952.91 386.25 794.9 409.14"/><polygon class="cls-17" points="796.95 429.75 797.93 436.61 955.81 413.54 954.96 406.85 796.95 429.75"/><polygon class="cls-17" points="802.14 471.43 803.13 478.3 961.01 455.22 960.16 448.53 802.14 471.43"/><polygon class="cls-17" points="804.79 494.18 805.78 501.05 963.66 477.97 962.81 471.28 804.79 494.18"/><polygon class="cls-17" points="807.57 517.16 808.56 524.03 966.44 500.95 965.59 494.26 807.57 517.16"/><polygon class="cls-17" points="798.86 450.55 799.84 457.41 957.72 434.34 956.87 427.65 798.86 450.55"/><polygon class="cls-62" points="958.6 342.19 959.58 349.06 971.73 347.32 970.88 340.63 958.6 342.19"/><polygon class="cls-62" points="961.01 362.51 962 369.38 974.15 367.64 973.3 360.95 961.01 362.51"/><polygon class="cls-62" points="963.66 384.63 964.65 391.5 976.8 389.77 975.95 383.08 963.66 384.63"/><polygon class="cls-62" points="966.5 404.19 967.49 411.06 979.64 409.32 978.79 402.64 966.5 404.19"/><polygon class="cls-62" points="968.87 426.2 969.86 433.07 982 431.34 981.15 424.65 968.87 426.2"/><polygon class="cls-62" points="970.84 446.96 971.83 453.83 983.97 452.09 983.12 445.4 970.84 446.96"/><polygon class="cls-62" points="974.29 469.92 975.28 476.79 987.42 475.05 986.57 468.36 974.29 469.92"/><polygon class="cls-62" points="977.41 491.61 978.4 498.48 990.54 496.74 989.69 490.05 977.41 491.61"/><path class="cls-63" d="M1008.05,1274.07s8.58,3.13,9.78,4.88l10.52-19.16" transform="translate(-46.1 -891.66)"/><path class="cls-63" d="M1001.11,1232.52s8.58,3.13,9.78,4.87l10.52-19.16" transform="translate(-46.1 -891.66)"/><path class="cls-63" d="M1011.39,1295.14s8.57,3.13,9.77,4.87l10.52-19.16" transform="translate(-46.1 -891.66)"/><path class="cls-63" d="M1012.75,1317s8.57,3.13,9.77,4.87l10.52-19.15" transform="translate(-46.1 -891.66)"/><path class="cls-63" d="M1018.2,1363.36s8.58,3.13,9.78,4.87l10.52-19.16" transform="translate(-46.1 -891.66)"/></g></svg>